<svg width="25" height="24" viewBox="0 0 25 24" fill="none" xmlns="http://www.w3.org/2000/svg">
<g clip-path="url(#clip0_465_7388)">
<path d="M3.70792 17.1516C5.90722 20.7385 10.2778 22.611 14.5633 21.464C19.796 20.0635 22.9204 14.6908 21.5418 9.464C20.1631 4.23713 14.8034 1.13528 9.57068 2.5358C4.54936 3.87974 1.46986 8.88113 2.44667 13.9016C3.33109 14.7659 3.73813 15.338 3.70801 17.1516L3.70792 17.1516Z" fill="#111215"/>
<path d="M10.9536 9.76023C10.9578 9.77615 10.962 9.79207 10.9668 9.8068L9.53564 13.7915C9.15556 13.875 8.79604 14.0417 8.47747 14.2843C8.33686 14.3907 8.21004 14.509 8.09553 14.6371L2.45224 13.9062C2.45228 13.9062 2.84506 15.8736 3.71655 17.185L7.70694 17.7051C8.10043 18.4634 8.84108 19.0227 9.74821 19.1443C11.2327 19.3445 12.6068 18.2957 12.8106 16.8105C12.8633 16.4224 12.8341 16.0379 12.728 15.675L15.4207 12.419C15.4478 12.4127 15.4757 12.4061 15.5025 12.3989C17.4877 11.8676 18.6749 9.81908 18.1512 7.83381C17.6276 5.84838 15.588 4.6651 13.6027 5.19644C11.6183 5.72756 10.43 7.7748 10.9536 9.76023ZM12.1955 16.7264C12.0373 17.8741 10.9786 18.6819 9.83272 18.5285C9.3041 18.4578 8.84868 18.1909 8.527 17.8135L9.82647 17.9849C10.6715 18.0979 11.45 17.5034 11.566 16.6583C11.6827 15.8121 11.0919 15.0344 10.2473 14.9213L8.90403 14.7442C9.32463 14.442 9.85416 14.2933 10.4049 14.3668C10.9602 14.4409 11.4517 14.7285 11.7895 15.1739C12.1273 15.6192 12.2722 16.1718 12.1955 16.7264ZM15.1854 11.1966C13.8638 11.5503 12.5039 10.7619 12.1549 9.43872C11.8061 8.11659 12.5981 6.75189 13.9197 6.39817C15.2421 6.04424 16.6021 6.83297 16.9508 8.1551C17.2998 9.47829 16.5078 10.8427 15.1854 11.1966ZM12.7549 9.27421C12.4924 8.27881 13.0862 7.25554 14.08 6.98955C15.0747 6.72333 16.0944 7.31473 16.357 8.31013C16.6196 9.30561 16.0255 10.3281 15.0309 10.5944C14.037 10.8604 13.0175 10.2697 12.7549 9.27421Z" fill="#FEFEFF"/>
</g>
<defs>
<clipPath id="clip0_465_7388">
<rect width="19.5961" height="19.5961" fill="white" transform="matrix(0.967009 -0.258817 0.254776 0.965917 0.0957031 5.07175)"/>
</clipPath>
</defs>
</svg>
