<svg width="18" height="18" viewBox="0 0 18 18" fill="none" xmlns="http://www.w3.org/2000/svg">
<g opacity="0.4">
<mask id="path-1-inside-1_465_16" fill="white">
<path fill-rule="evenodd" clip-rule="evenodd" d="M1.18506 3.64302L4.42639 2.18368C5.60028 1.65559 6.63805 1.1892 7.21643 0.931734L8.99983 0L11.3463 1.1731C11.8793 1.41229 12.8386 1.84566 13.9155 2.33451L16.875 3.67155V7.70716C16.875 11.486 16.8703 11.7632 16.7904 12.0689C16.1657 14.4046 13.4223 16.5692 9.46691 17.8533L9.00654 18L8.43344 17.8125C6.30543 17.1114 4.64718 16.2268 3.30367 15.0732C2.25141 14.1682 1.59375 13.251 1.26492 12.2116L1.14278 11.8243L1.12869 8.50206C1.11929 6.67584 1.12869 4.83332 1.14748 4.41346L1.18506 3.64302Z"/>
</mask>
<path d="M4.42639 2.18368L4.01586 1.27184L4.01613 1.27171L4.42639 2.18368ZM1.18506 3.64302L0.186244 3.5943L0.216082 2.9826L0.774519 2.73118L1.18506 3.64302ZM7.21643 0.931734L7.67949 1.81806L7.65173 1.83257L7.62311 1.84531L7.21643 0.931734ZM8.99983 0L8.53677 -0.886326L8.98982 -1.12302L9.44701 -0.894445L8.99983 0ZM11.3463 1.1731L10.9369 2.08545L10.9178 2.0769L10.8991 2.06755L11.3463 1.1731ZM13.9155 2.33451L13.5038 3.24582L13.5022 3.24508L13.9155 2.33451ZM16.875 3.67155L17.2867 2.76024L17.875 3.02602V3.67155H16.875ZM16.7904 12.0689L17.758 12.3216L17.7565 12.3273L16.7904 12.0689ZM9.46691 17.8533L9.77568 18.8044L9.77062 18.806L9.46691 17.8533ZM9.00654 18L9.31025 18.9528L9.00253 19.0509L8.69558 18.9504L9.00654 18ZM8.43344 17.8125L8.12247 18.7629L8.1205 18.7623L8.43344 17.8125ZM3.30367 15.0732L2.65222 15.8319L2.65163 15.8313L3.30367 15.0732ZM1.26492 12.2116L0.311485 12.5132L0.311224 12.5123L1.26492 12.2116ZM1.14278 11.8243L0.189087 12.1251L0.143431 11.9803L0.142788 11.8285L1.14278 11.8243ZM1.12869 8.50206L2.12867 8.49691L2.12868 8.49781L1.12869 8.50206ZM1.14748 4.41346L0.148468 4.36875L0.148664 4.36473L1.14748 4.41346ZM4.83693 3.09552L1.59559 4.55486L0.774519 2.73118L4.01586 1.27184L4.83693 3.09552ZM7.62311 1.84531C7.04693 2.1018 6.01119 2.56727 4.83665 3.09565L4.01613 1.27171C5.18937 0.743916 6.22918 0.276608 6.80975 0.0181618L7.62311 1.84531ZM6.75337 0.0454082L8.53677 -0.886326L9.46289 0.886326L7.67949 1.81806L6.75337 0.0454082ZM9.44701 -0.894445L11.7934 0.278656L10.8991 2.06755L8.55265 0.894445L9.44701 -0.894445ZM13.5022 3.24508C12.4259 2.75651 11.468 2.3238 10.9369 2.08545L11.7557 0.260748C12.2906 0.500776 13.2514 0.934813 14.3289 1.42393L13.5022 3.24508ZM16.4633 4.58287L13.5038 3.24582L14.3272 1.42319L17.2867 2.76024L16.4633 4.58287ZM15.875 7.70716V3.67155H17.875V7.70716H15.875ZM15.8229 11.8162C15.8302 11.7881 15.8518 11.7468 15.8629 11.1712C15.8738 10.6035 15.875 9.602 15.875 7.70716H17.875C17.875 9.59112 17.8739 10.6176 17.8625 11.2097C17.8512 11.7938 17.8305 12.0439 17.758 12.3216L15.8229 11.8162ZM9.15813 16.9021C11.0494 16.2881 12.612 15.4755 13.7579 14.5706C14.9112 13.66 15.5856 12.7031 15.8244 11.8105L17.7565 12.3273C17.3705 13.7704 16.3609 15.0637 14.9974 16.1403C13.6265 17.2227 11.8398 18.1343 9.77568 18.8044L9.15813 16.9021ZM8.70283 17.0472L9.16319 16.9005L9.77062 18.806L9.31025 18.9528L8.70283 17.0472ZM8.7444 16.8621L9.31751 17.0496L8.69558 18.9504L8.12247 18.7629L8.7444 16.8621ZM3.95512 14.3145C5.17657 15.3633 6.71046 16.1919 8.74637 16.8627L8.1205 18.7623C5.9004 18.0308 4.11779 17.0903 2.65222 15.8319L3.95512 14.3145ZM2.21835 11.9099C2.47689 12.7272 3.0038 13.4963 3.95571 14.315L2.65163 15.8313C1.49902 14.8401 0.710599 13.7748 0.311485 12.5132L2.21835 11.9099ZM2.09647 11.5235L2.21861 11.9108L0.311224 12.5123L0.189087 12.1251L2.09647 11.5235ZM2.12868 8.49781L2.14277 11.8201L0.142788 11.8285L0.128695 8.5063L2.12868 8.49781ZM2.14648 4.45816C2.12906 4.84743 2.11923 6.66122 2.12867 8.49691L0.128699 8.5072C0.119353 6.69046 0.128316 4.81921 0.148476 4.36875L2.14648 4.45816ZM2.18387 3.69174L2.14629 4.46218L0.148664 4.36473L0.186244 3.5943L2.18387 3.69174Z" fill="#4A88C2" mask="url(#path-1-inside-1_465_16)"/>
</g>
<path fill-rule="evenodd" clip-rule="evenodd" d="M3.4179 4.98227L5.73314 3.88776C6.57217 3.49144 7.31385 3.14145 7.72683 2.94843L9 2.25L12.313 3.9065C12.3783 3.9376 12.4444 3.96908 12.5111 4.00088L14.625 5.00367V8.03037C14.625 10.8645 14.6216 11.0724 14.5646 11.3017C14.1183 13.0535 12.1588 14.6769 9.3335 15.6399L9.00467 15.75L8.59531 15.6094C7.07531 15.0835 5.89084 14.4201 4.93119 13.5549C4.17958 12.8762 3.70982 12.1883 3.47494 11.4087L3.3877 11.1182L3.37763 8.62654C3.37092 7.25688 3.37763 5.87499 3.39105 5.56009L3.4179 4.98227Z" fill="#4A88C2"/>
<path d="M12.1339 8.27679H11.2974C11.2557 8.14192 11.2016 8.01119 11.1359 7.88625L11.7265 7.29563C11.7491 7.27321 11.767 7.24655 11.7793 7.21717C11.7915 7.1878 11.7978 7.15629 11.7978 7.12446C11.7978 7.09264 11.7915 7.06113 11.7793 7.03175C11.767 7.00238 11.7491 6.97571 11.7265 6.9533L11.0467 6.27348C11.0243 6.25089 10.9976 6.23295 10.9682 6.22071C10.9389 6.20847 10.9074 6.20217 10.8755 6.20217C10.8437 6.20217 10.8122 6.20847 10.7828 6.22071C10.7534 6.23295 10.7268 6.25089 10.7044 6.27348L10.1138 6.86411C9.98881 6.79838 9.85808 6.74432 9.72321 6.70259V5.86607C9.72321 5.80214 9.69782 5.74082 9.65261 5.69561C9.6074 5.6504 9.54608 5.625 9.48214 5.625H8.51786C8.45392 5.625 8.3926 5.6504 8.34739 5.69561C8.30218 5.74082 8.27679 5.80214 8.27679 5.86607V6.70259C8.14192 6.74432 8.01119 6.79838 7.88625 6.86411L7.29563 6.27348C7.27321 6.25089 7.24655 6.23295 7.21717 6.22071C7.1878 6.20847 7.15629 6.20217 7.12446 6.20217C7.09264 6.20217 7.06113 6.20847 7.03175 6.22071C7.00238 6.23295 6.97571 6.25089 6.9533 6.27348L6.27348 6.9533C6.25089 6.97571 6.23295 7.00238 6.22071 7.03175C6.20847 7.06113 6.20217 7.09264 6.20217 7.12446C6.20217 7.15629 6.20847 7.1878 6.22071 7.21717C6.23295 7.24655 6.25089 7.27321 6.27348 7.29563L6.86411 7.88625C6.83518 7.9417 6.80866 7.99955 6.78214 8.05741C6.75167 8.12904 6.72512 8.20227 6.70259 8.27679H5.86607C5.80214 8.27679 5.74082 8.30218 5.69561 8.34739C5.6504 8.3926 5.625 8.45392 5.625 8.51786V9.48214C5.625 9.54608 5.6504 9.6074 5.69561 9.65261C5.74082 9.69782 5.80214 9.72321 5.86607 9.72321H6.70259C6.74432 9.85808 6.79838 9.98881 6.86411 10.1138L6.27348 10.7044C6.25089 10.7268 6.23295 10.7534 6.22071 10.7828C6.20847 10.8122 6.20217 10.8437 6.20217 10.8755C6.20217 10.9074 6.20847 10.9389 6.22071 10.9682C6.23295 10.9976 6.25089 11.0243 6.27348 11.0467L6.9533 11.7265C6.97571 11.7491 7.00238 11.767 7.03175 11.7793C7.06113 11.7915 7.09264 11.7978 7.12446 11.7978C7.15629 11.7978 7.1878 11.7915 7.21717 11.7793C7.24655 11.767 7.27321 11.7491 7.29563 11.7265L7.88625 11.1359C8.01119 11.2016 8.14192 11.2557 8.27679 11.2974V12.1339C8.27679 12.1979 8.30218 12.2592 8.34739 12.3044C8.3926 12.3496 8.45392 12.375 8.51786 12.375H9.48214C9.54608 12.375 9.6074 12.3496 9.65261 12.3044C9.69782 12.2592 9.72321 12.1979 9.72321 12.1339V11.2974C9.85808 11.2557 9.98881 11.2016 10.1138 11.1359L10.7044 11.7265C10.7268 11.7491 10.7534 11.767 10.7828 11.7793C10.8122 11.7915 10.8437 11.7978 10.8755 11.7978C10.9074 11.7978 10.9389 11.7915 10.9682 11.7793C10.9976 11.767 11.0243 11.7491 11.0467 11.7265L11.7265 11.0467C11.7491 11.0243 11.767 10.9976 11.7793 10.9682C11.7915 10.9389 11.7978 10.9074 11.7978 10.8755C11.7978 10.8437 11.7915 10.8122 11.7793 10.7828C11.767 10.7534 11.7491 10.7268 11.7265 10.7044L11.1359 10.1138C11.2016 9.98881 11.2557 9.85808 11.2974 9.72321H12.1339C12.1979 9.72321 12.2592 9.69782 12.3044 9.65261C12.3496 9.6074 12.375 9.54608 12.375 9.48214V8.51786C12.375 8.45392 12.3496 8.3926 12.3044 8.34739C12.2592 8.30218 12.1979 8.27679 12.1339 8.27679Z" fill="#141616"/>
<path d="M9.00028 10.205C9.66598 10.205 10.2056 9.66534 10.2056 8.99964C10.2056 8.33394 9.66598 7.79428 9.00028 7.79428C8.33458 7.79428 7.79492 8.33394 7.79492 8.99964C7.79492 9.66534 8.33458 10.205 9.00028 10.205Z" fill="#4A88C2"/>
</svg>
