<svg width="16" height="18" viewBox="0 0 16 18" fill="none" xmlns="http://www.w3.org/2000/svg">
<g opacity="0.4">
<mask id="path-1-inside-1_465_12422" fill="white">
<path fill-rule="evenodd" clip-rule="evenodd" d="M0.0610101 3.64302L3.3538 2.18368C4.5453 1.65604 5.59877 1.19 6.18662 0.932392L7.99961 0L10.3813 1.17214C10.9224 1.41113 11.8981 1.84501 12.9935 2.33451L16 3.67155V7.70716C16 11.486 15.9952 11.7632 15.9141 12.0689C15.2794 14.4046 12.4925 16.5692 8.47432 17.8533L8.00664 18L7.42444 17.8125C5.26266 17.1114 3.57809 16.2268 2.21325 15.0732C1.14429 14.1682 0.476187 13.251 0.142137 12.2116L0.0180607 11.8243L0.00374428 8.50206C-0.00580003 6.67584 0.00374428 4.83332 0.0228329 4.41346L0.0610101 3.64302Z"/>
</mask>
<path d="M3.3538 2.18368L2.94861 1.26945L2.94889 1.26932L3.3538 2.18368ZM0.0610101 3.64302L-0.937764 3.59353L-0.907281 2.97835L-0.344173 2.72878L0.0610101 3.64302ZM6.18662 0.932392L6.64397 1.82168L6.61639 1.83586L6.58799 1.84831L6.18662 0.932392ZM7.99961 0L7.54226 -0.889288L7.98972 -1.11941L8.44117 -0.89723L7.99961 0ZM10.3813 1.17214L9.97729 2.08688L9.95835 2.07852L9.93977 2.06937L10.3813 1.17214ZM12.9935 2.33451L12.5872 3.24822L12.5856 3.2475L12.9935 2.33451ZM16 3.67155L16.4064 2.75784L17 3.02185V3.67155H16ZM15.9141 12.0689L16.8807 12.3254L16.8791 12.3311L15.9141 12.0689ZM8.47432 17.8533L8.77872 18.8058L8.77371 18.8074L8.47432 17.8533ZM8.00664 18L8.30604 18.9541L8.0027 19.0493L7.70008 18.9518L8.00664 18ZM7.42444 17.8125L7.11787 18.7643L7.11593 18.7637L7.42444 17.8125ZM2.21325 15.0732L1.56772 15.8369L1.56712 15.8364L2.21325 15.0732ZM0.142137 12.2116L-0.80991 12.5175L-0.810177 12.5167L0.142137 12.2116ZM0.0180607 11.8243L-0.934253 12.1294L-0.981266 11.9827L-0.98193 11.8286L0.0180607 11.8243ZM0.00374428 8.50206L1.00373 8.49683L1.00373 8.49775L0.00374428 8.50206ZM0.0228329 4.41346L-0.976144 4.36804L-0.975942 4.36396L0.0228329 4.41346ZM3.75898 3.09792L0.466193 4.55726L-0.344173 2.72878L2.94861 1.26945L3.75898 3.09792ZM6.58799 1.84831C6.0023 2.10496 4.95085 2.57012 3.7587 3.09804L2.94889 1.26932C4.13975 0.741968 5.19523 0.27503 5.78526 0.0164738L6.58799 1.84831ZM5.72927 0.0431042L7.54226 -0.889288L8.45695 0.889288L6.64397 1.82168L5.72927 0.0431042ZM8.44117 -0.89723L10.8229 0.274912L9.93977 2.06937L7.55804 0.89723L8.44117 -0.89723ZM12.5856 3.2475C11.4907 2.75827 10.5165 2.32505 9.97729 2.08688L10.7854 0.257404C11.3283 0.497215 12.3055 0.931744 13.4015 1.42151L12.5856 3.2475ZM15.5936 4.58527L12.5872 3.24822L13.3999 1.42079L16.4064 2.75784L15.5936 4.58527ZM15 7.70716V3.67155H17V7.70716H15ZM14.9476 11.8124C14.9545 11.7861 14.9764 11.7463 14.9877 11.1709C14.9988 10.6034 15 9.60209 15 7.70716H17C17 9.59103 16.9989 10.6177 16.9873 11.21C16.9759 11.7942 16.9548 12.0459 16.8807 12.3254L14.9476 11.8124ZM8.16992 16.9007C10.0938 16.2859 11.6835 15.4721 12.8493 14.5659C14.0231 13.6535 14.7073 12.6964 14.9491 11.8067L16.8791 12.3311C16.4862 13.7772 15.4595 15.0702 14.0767 16.145C12.6858 17.2261 10.873 18.1365 8.77871 18.8058L8.16992 16.9007ZM7.70725 17.0459L8.17492 16.8991L8.77371 18.8074L8.30604 18.9541L7.70725 17.0459ZM7.73101 16.8606L8.31321 17.0482L7.70008 18.9518L7.11788 18.7643L7.73101 16.8606ZM2.85879 14.3094C4.10129 15.3597 5.66196 16.1896 7.73295 16.8613L7.11593 18.7637C4.86335 18.0331 3.05488 17.0939 1.56772 15.8369L2.85879 14.3094ZM1.09418 11.9056C1.35611 12.7207 1.89071 13.4899 2.85938 14.3099L1.56712 15.8364C0.397866 14.8465 -0.403737 13.7814 -0.809909 12.5175L1.09418 11.9056ZM0.970375 11.5192L1.09445 11.9064L-0.810177 12.5167L-0.934253 12.1294L0.970375 11.5192ZM1.00373 8.49775L1.01805 11.82L-0.98193 11.8286L-0.996246 8.50636L1.00373 8.49775ZM1.0218 4.45887C1.00413 4.84765 0.994136 6.66099 1.00373 8.49683L-0.996242 8.50728C-1.00574 6.6907 -0.996637 4.81899 -0.976135 4.36804L1.0218 4.45887ZM1.05978 3.69251L1.02161 4.46295L-0.975942 4.36396L-0.937764 3.59353L1.05978 3.69251Z" fill="#5A9D69" mask="url(#path-1-inside-1_465_12422)"/>
</g>
<path fill-rule="evenodd" clip-rule="evenodd" d="M2.32971 4.98227L4.6817 3.88776C5.53214 3.49233 6.28413 3.14302 6.70421 2.94973L8 2.25L11.3572 3.90236C11.4264 3.93481 11.4965 3.96767 11.5672 4.00088L13.7147 5.00367V8.03037C13.7147 10.8645 13.7113 11.0724 13.6533 11.3017C13.2 13.0535 11.2093 14.6769 8.33921 15.6399L8.00516 15.75L7.5893 15.6094C6.04517 15.0835 4.84191 14.4201 3.86703 13.5549C3.10348 12.8762 2.62627 12.1883 2.38766 11.4087L2.29903 11.1182L2.28881 8.62654C2.28199 7.25688 2.28881 5.87499 2.30244 5.56009L2.32971 4.98227Z" fill="#5A9D69"/>
<path d="M5.71387 9.07759L7.57433 11.25L11.4282 6.75" stroke="#141616" stroke-width="1.5" stroke-linecap="round" stroke-linejoin="round"/>
</svg>
