<svg width="18" height="18" viewBox="0 0 18 18" fill="none" xmlns="http://www.w3.org/2000/svg">
<g clip-path="url(#clip0_465_12461)">
<path opacity="0.4" d="M6.9751 0.126659C3.97538 1.59714 1.41428 2.87766 1.33622 2.94802C1.10576 3.14854 1.11691 2.9445 1.13178 7.2469C1.14293 11.0814 1.14665 11.1764 1.22099 11.5071C1.4403 12.4534 1.86777 13.2977 2.58146 14.1948C2.70412 14.3495 3.05725 14.7154 3.36577 15.0074C4.67791 16.2422 6.42125 17.2202 8.55487 17.9061C8.99721 18.0504 9.07899 18.0433 9.82241 17.7795C11.8111 17.0865 13.3202 16.2246 14.5729 15.0742C15.7364 14.0083 16.4612 12.8368 16.7734 11.5211L16.8589 11.1694L16.8701 7.27152C16.8812 4.52052 16.8738 3.33499 16.8441 3.23297C16.8218 3.15557 16.7474 3.03597 16.6842 2.97264C16.6024 2.89173 15.7289 2.44144 13.8146 1.49512C12.3055 0.749329 11.0305 0.130177 10.9822 0.119623C10.8744 0.0914803 10.7034 0.158321 10.6439 0.246267C10.5919 0.330698 10.5101 0.953367 10.551 0.985027C10.5658 0.9991 11.6587 1.53734 12.9783 2.18112C14.2978 2.82489 15.4501 3.39831 15.5468 3.45108C15.6397 3.50736 15.7512 3.6129 15.7958 3.6903L15.8776 3.82749V7.38058C15.8776 11.2573 15.8813 11.2116 15.662 11.8202C15.3386 12.7172 14.8294 13.4525 13.9484 14.2827C13.4206 14.7822 12.785 15.2572 12.1159 15.6547C11.2275 16.1824 9.49531 16.9176 9.06784 16.9493C8.81879 16.9669 8.46938 16.8578 7.55125 16.4779C6.13874 15.8904 5.00502 15.1798 4.05344 14.2827C3.1762 13.456 2.66323 12.7172 2.33984 11.8202C2.12053 11.2116 2.12425 11.2573 2.12425 7.38058V3.82749L2.20603 3.6903C2.25063 3.6129 2.36215 3.50736 2.45507 3.45108C2.55172 3.39831 3.7858 2.78619 5.19831 2.09317C6.61454 1.40366 7.78171 0.826723 7.78915 0.816168C7.80402 0.788025 7.64418 0.26034 7.5847 0.154802C7.5401 0.0738907 7.40257 1.52588e-05 7.29849 1.52588e-05C7.26503 1.52588e-05 7.12006 0.0563011 6.9751 0.126659Z" fill="#CD412B"/>
<path d="M5.73314 3.39352L3.4179 4.53363L3.39105 5.13553C3.37763 5.46355 3.37092 6.90302 3.37763 8.32975L3.3877 10.9252L3.47494 11.2278C3.70982 12.0399 4.17958 12.7564 4.93119 13.4634C5.89084 14.3647 7.07531 15.0558 8.59531 15.6035L9.00467 15.75L9.3335 15.6354C12.1588 14.6322 14.1183 12.9411 14.5646 11.1163C14.6216 10.8775 14.625 10.6609 14.625 7.70874V4.55592L12.5111 3.51135C11.3501 2.93493 10.3804 2.45722 10.3603 2.45086C10.3368 2.4413 10.3099 2.54958 10.2831 2.77569C10.2596 2.96359 10.226 3.1483 10.2059 3.18014C10.1858 3.21518 9.93077 3.52727 9.63885 3.87759C9.18251 4.41898 9.10533 4.52407 9.10533 4.61961C9.10533 4.71197 9.15902 4.79158 9.46436 5.13553C9.66569 5.36164 10.367 6.15144 11.028 6.89346C11.689 7.63867 12.2359 8.27879 12.246 8.32019C12.2729 8.41573 12.2393 8.53357 12.1722 8.60044C12.142 8.62911 11.5749 9.05267 10.9106 9.54629C10.1925 10.0781 9.69253 10.4698 9.67576 10.5144C9.65227 10.5718 9.69924 10.9221 9.84688 11.7724C10.0683 13.0431 10.0717 13.0845 9.89386 13.1259C9.84353 13.1386 9.77977 13.1259 9.7328 13.0972C9.69253 13.0717 9.25968 12.387 8.7765 11.5749C7.86718 10.0622 7.82356 9.96666 7.93429 9.83928C7.95778 9.81062 8.50136 9.45393 9.13889 9.0463C9.77642 8.63866 10.3166 8.28516 10.3368 8.25968C10.3737 8.21828 10.3972 8.10682 10.3871 8.0081C10.3837 7.97943 9.69924 7.18964 8.8671 6.25653C8.03496 5.32024 7.33367 4.51133 7.30683 4.45401C7.27328 4.37758 7.26992 4.32981 7.29676 4.26293C7.31354 4.21516 7.54842 3.96676 7.8135 3.71198C8.07858 3.45721 8.31346 3.21199 8.33023 3.16422C8.36043 3.09097 8.34365 3.0018 8.24635 2.68652C8.1222 2.2757 8.10878 2.24704 8.07187 2.25022C8.05844 2.25022 7.0082 2.76614 5.73314 3.39352Z" fill="#CD412B"/>
</g>
<defs>
<clipPath id="clip0_465_12461">
<rect width="18" height="18" fill="white"/>
</clipPath>
</defs>
</svg>
