<svg width="20" height="20" viewBox="0 0 20 20" fill="none" xmlns="http://www.w3.org/2000/svg">
<path d="M4.14837 8.0709C2.49347 7.40893 1.66602 7.07795 1.66602 6.66666C1.66602 6.25537 2.49347 5.92439 4.14837 5.26243L6.48876 4.32627C8.14367 3.66431 8.97112 3.33333 9.99935 3.33333C11.0276 3.33333 11.855 3.66431 13.5099 4.32627L15.8503 5.26243C17.5052 5.92439 18.3327 6.25537 18.3327 6.66666C18.3327 7.07795 17.5052 7.40893 15.8503 8.0709L13.5099 9.00705C11.855 9.66901 11.0276 10 9.99935 10C8.97112 10 8.14367 9.66901 6.48876 9.00705L4.14837 8.0709Z" fill="#8A8A98"/>
<path fill-rule="evenodd" clip-rule="evenodd" d="M1.66602 6.66666C1.66602 7.07795 2.49347 7.40893 4.14837 8.0709L6.48876 9.00705C8.14367 9.66901 8.97112 10 9.99935 10C11.0276 10 11.855 9.66901 13.5099 9.00705L15.8503 8.0709C17.5052 7.40893 18.3327 7.07795 18.3327 6.66666C18.3327 6.25537 17.5052 5.92439 15.8503 5.26243L13.5099 4.32627C11.855 3.66431 11.0276 3.33333 9.99935 3.33333C8.97112 3.33333 8.14367 3.66431 6.48876 4.32627L4.14837 5.26243C2.49347 5.92439 1.66602 6.25537 1.66602 6.66666Z" fill="#59B3A8"/>
<path d="M15.8503 11.4042L13.5099 12.3404C11.855 13.0023 11.0276 13.3333 9.99935 13.3333C8.97112 13.3333 8.14367 13.0023 6.48876 12.3404L4.14837 11.4042C2.49347 10.7423 1.66602 10.4113 1.66602 10C1.66602 9.62925 2.33836 9.32377 3.68304 8.78229L6.30054 9.82931C7.84107 10.4458 8.80931 10.8333 9.99935 10.8333C11.1894 10.8333 12.1576 10.4458 13.6982 9.82931L16.3157 8.78229C17.6603 9.32376 18.3327 9.62925 18.3327 10C18.3327 10.4113 17.5052 10.7423 15.8503 11.4042Z" fill="#59B3A8"/>
<path d="M15.8503 14.7374L13.5099 15.6736C11.855 16.3355 11.0276 16.6665 9.99935 16.6665C8.97112 16.6665 8.14367 16.3355 6.48876 15.6736L4.14837 14.7374C2.49347 14.0755 1.66602 13.7445 1.66602 13.3332C1.66602 12.9624 2.33836 12.6569 3.68304 12.1155L6.30054 13.1625C7.84107 13.779 8.80931 14.1665 9.99935 14.1665C11.1894 14.1665 12.1576 13.779 13.6982 13.1625L16.3157 12.1155C17.6603 12.657 18.3327 12.9624 18.3327 13.3332C18.3327 13.7445 17.5052 14.0755 15.8503 14.7374Z" fill="#59B3A8"/>
</svg>
