<svg width="20.000000" height="20.000000" viewBox="0 0 20 20" fill="none" xmlns="http://www.w3.org/2000/svg" xmlns:xlink="http://www.w3.org/1999/xlink">
	<desc>
			Created with Pixso.
	</desc>
	<defs/>
	<g opacity="0.580000"/>
	<path d="M9.16 15L9.16 17.5C9.16 17.95 8.79 18.33 8.33 18.33C7.87 18.33 7.5 17.95 7.5 17.5L7.5 15L9.16 15Z" fill="#59B3A8" fill-opacity="1.000000" fill-rule="nonzero"/>
	<path d="M12.5 15L12.5 17.5C12.5 17.95 12.12 18.33 11.66 18.33C11.2 18.33 10.83 17.95 10.83 17.5L10.83 15L12.5 15Z" fill="#59B3A8" fill-opacity="1.000000" fill-rule="nonzero"/>
	<path d="M14.16 9.16L14.16 13.33C14.16 14.25 13.41 15 12.5 15L7.5 15C6.58 15 5.83 14.25 5.83 13.33L5.83 9.16C5.83 8.25 6.58 7.5 7.5 7.5L12.5 7.5C13.41 7.5 14.16 8.25 14.16 9.16Z" fill="#59B3A8" fill-opacity="1.000000" fill-rule="nonzero"/>
	<path d="M4.16 9.16L4.16 12.5C4.16 12.95 3.79 13.33 3.33 13.33C2.87 13.33 2.5 12.95 2.5 12.5L2.5 9.16C2.5 8.7 2.87 8.33 3.33 8.33C3.79 8.33 4.16 8.7 4.16 9.16Z" fill="#59B3A8" fill-opacity="1.000000" fill-rule="nonzero"/>
	<path d="M17.5 9.16L17.5 12.5C17.5 12.95 17.12 13.33 16.66 13.33C16.2 13.33 15.83 12.95 15.83 12.5L15.83 9.16C15.83 8.7 16.2 8.33 16.66 8.33C17.12 8.33 17.5 8.7 17.5 9.16Z" fill="#59B3A8" fill-opacity="1.000000" fill-rule="nonzero"/>
	<path d="M8 6.33L12 6.33C12.73 6.33 13.33 5.73 13.33 5C13.33 3.15 11.84 1.66 10 1.66C8.15 1.66 6.66 3.15 6.66 5C6.66 5.73 7.26 6.33 8 6.33Z" fill="#59B3A8" fill-opacity="1.000000" fill-rule="nonzero"/>
	<g opacity="0.000000"/>
</svg>
