<svg width="16.000000" height="16.000000" viewBox="0 0 16 16" fill="none" xmlns="http://www.w3.org/2000/svg" xmlns:xlink="http://www.w3.org/1999/xlink">
	<desc>
			Created with Pixso.
	</desc>
	<defs/>
	<path id="Vector" d="M8 16C12.41 16 16 12.41 16 8C16 3.58 12.41 0 8 0C3.58 0 0 3.58 0 8C0 9.27 0.3 10.48 0.83 11.56C0.97 11.84 1.02 12.17 0.94 12.48L0.46 14.26C0.25 15.03 0.96 15.74 1.73 15.53L3.51 15.05C3.82 14.97 4.15 15.02 4.43 15.16C5.51 15.69 6.72 16 8 16Z" fill="#CDD1D9" fill-opacity="1.000000" fill-rule="nonzero"/>
	<path id="Vector" d="M10.4 8C10.4 8.44 10.75 8.79 11.2 8.79C11.64 8.79 12 8.44 12 8C12 7.55 11.64 7.2 11.2 7.2C10.75 7.2 10.4 7.55 10.4 8Z" fill="#1D2022" fill-opacity="1.000000" fill-rule="nonzero"/>
	<path id="Vector" d="M7.2 8C7.2 8.44 7.55 8.79 8 8.79C8.44 8.79 8.79 8.44 8.79 8C8.79 7.55 8.44 7.2 8 7.2C7.55 7.2 7.2 7.55 7.2 8Z" fill="#1D2022" fill-opacity="1.000000" fill-rule="nonzero"/>
	<path id="Vector" d="M4 8C4 8.44 4.35 8.79 4.79 8.79C5.24 8.79 5.59 8.44 5.59 8C5.59 7.55 5.24 7.2 4.79 7.2C4.35 7.2 4 7.55 4 8Z" fill="#1D2022" fill-opacity="1.000000" fill-rule="nonzero"/>
</svg>
