<svg width="42" height="42" viewBox="0 0 42 42" fill="none" xmlns="http://www.w3.org/2000/svg">
<rect width="42" height="42" rx="6" fill="#2B7FC2" fill-opacity="0.03"/>
<g filter="url(#filter0_bii_1865_23205)">
<path d="M22.0021 6.00084C23.1515 5.98255 24.2282 6.26184 25.238 6.81802C25.9587 7.2149 26.6238 7.69968 27.2997 8.16677C28.5765 9.04873 29.9387 9.73361 31.4512 10.0864C32.2158 10.2649 32.9884 10.3819 33.7707 10.4377C34.2655 10.4731 34.7602 10.4959 35.2561 10.4956C35.6766 10.4956 35.9954 10.8259 35.996 11.2585C35.9972 12.4131 35.9966 13.5678 35.9963 14.7224C35.9963 15.8921 36.0069 17.062 35.9922 18.2314C35.9804 19.1653 35.8587 20.088 35.6265 20.9937C31.13 20.9934 26.6335 20.9931 22.1373 20.9928C22.0934 20.9928 22.0492 20.9976 22.0053 21L22 20.9871C22.0009 20.9472 22.0024 20.9073 22.0024 20.8671C22.0024 15.9116 22.0024 10.9558 22.0024 6.00024L22.0021 6.00084Z" fill="#F7B803"/>
</g>
<g filter="url(#filter1_bii_1865_23205)">
<path d="M20 6.00081C20 10.9587 20 15.9169 20 20.8748C20 20.9148 19.9985 20.9547 19.9976 20.9949C19.9437 20.9967 19.8898 21 19.8361 21C15.4053 21 10.9744 21 6.54356 21C6.48461 21 6.42595 20.9973 6.367 20.9958C6.11203 19.9537 5.99825 18.8952 6.00002 17.8216C6.00385 15.6609 6.0012 13.5006 6.0012 11.3399C6.0012 10.7985 6.29655 10.4992 6.82977 10.4968C8.36135 10.4902 9.872 10.3302 11.3435 9.86954C12.5481 9.49257 13.6423 8.8935 14.6834 8.18219C15.4232 7.67676 16.1439 7.14012 16.9413 6.72654C17.9025 6.22832 18.9218 5.98731 19.9997 6.00051L20 6.00081Z" fill="#37BFF0"/>
</g>
<g filter="url(#filter2_bii_1865_23205)">
<path d="M6 23.0009C6.06053 23.0024 6.12075 23.0051 6.18128 23.0051C10.7304 23.0051 15.2796 23.0051 19.8287 23.0051C19.8841 23.0051 19.9395 23.0018 19.9946 23L20 23.0129C19.9991 23.0978 19.9973 23.1827 19.9973 23.2676C19.997 28.1778 19.9967 33.088 19.9961 37.9986C19.8502 38.0091 19.7189 37.9613 19.5951 37.8929C17.5472 36.761 15.6261 35.4458 13.8188 33.9662C12.4951 32.8825 11.2546 31.7131 10.1288 30.4267C8.68645 28.7781 7.46897 26.9877 6.63673 24.9566C6.37617 24.3206 6.15949 23.6699 6 23.0012V23.0009Z" fill="#F7B803"/>
</g>
<g filter="url(#filter3_bii_1865_23205)">
<path d="M22 37.9998C22.0003 33.0873 22.0006 28.1748 22.0012 23.262C22.0012 23.1771 22.003 23.0921 22.0039 23.0072C22.049 23.0048 22.0945 23 22.1396 23C26.7598 23 31.3798 23.0003 36 23.0009C35.7193 24.1568 35.2843 25.2547 34.7344 26.3088C33.818 28.0665 32.6359 29.6368 31.2768 31.0781C28.7245 33.7849 25.7746 35.9876 22.535 37.82C22.3676 37.9146 22.2004 38.0046 22 37.9998Z" fill="#125195"/>
</g>
<defs>
<filter id="filter0_bii_1865_23205" x="-64" y="-80" width="186" height="187" filterUnits="userSpaceOnUse" color-interpolation-filters="sRGB">
<feFlood flood-opacity="0" result="BackgroundImageFix"/>
<feGaussianBlur in="BackgroundImageFix" stdDeviation="43"/>
<feComposite in2="SourceAlpha" operator="in" result="effect1_backgroundBlur_1865_23205"/>
<feBlend mode="normal" in="SourceGraphic" in2="effect1_backgroundBlur_1865_23205" result="shape"/>
<feColorMatrix in="SourceAlpha" type="matrix" values="0 0 0 0 0 0 0 0 0 0 0 0 0 0 0 0 0 0 127 0" result="hardAlpha"/>
<feOffset dy="4"/>
<feGaussianBlur stdDeviation="2"/>
<feComposite in2="hardAlpha" operator="arithmetic" k2="-1" k3="1"/>
<feColorMatrix type="matrix" values="0 0 0 0 1 0 0 0 0 1 0 0 0 0 1 0 0 0 0.15 0"/>
<feBlend mode="normal" in2="shape" result="effect2_innerShadow_1865_23205"/>
<feColorMatrix in="SourceAlpha" type="matrix" values="0 0 0 0 0 0 0 0 0 0 0 0 0 0 0 0 0 0 127 0" result="hardAlpha"/>
<feOffset/>
<feGaussianBlur stdDeviation="34"/>
<feComposite in2="hardAlpha" operator="arithmetic" k2="-1" k3="1"/>
<feColorMatrix type="matrix" values="0 0 0 0 1 0 0 0 0 1 0 0 0 0 1 0 0 0 0.05 0"/>
<feBlend mode="normal" in2="effect2_innerShadow_1865_23205" result="effect3_innerShadow_1865_23205"/>
</filter>
<filter id="filter1_bii_1865_23205" x="-80" y="-80" width="186" height="187" filterUnits="userSpaceOnUse" color-interpolation-filters="sRGB">
<feFlood flood-opacity="0" result="BackgroundImageFix"/>
<feGaussianBlur in="BackgroundImageFix" stdDeviation="43"/>
<feComposite in2="SourceAlpha" operator="in" result="effect1_backgroundBlur_1865_23205"/>
<feBlend mode="normal" in="SourceGraphic" in2="effect1_backgroundBlur_1865_23205" result="shape"/>
<feColorMatrix in="SourceAlpha" type="matrix" values="0 0 0 0 0 0 0 0 0 0 0 0 0 0 0 0 0 0 127 0" result="hardAlpha"/>
<feOffset dy="4"/>
<feGaussianBlur stdDeviation="2"/>
<feComposite in2="hardAlpha" operator="arithmetic" k2="-1" k3="1"/>
<feColorMatrix type="matrix" values="0 0 0 0 1 0 0 0 0 1 0 0 0 0 1 0 0 0 0.15 0"/>
<feBlend mode="normal" in2="shape" result="effect2_innerShadow_1865_23205"/>
<feColorMatrix in="SourceAlpha" type="matrix" values="0 0 0 0 0 0 0 0 0 0 0 0 0 0 0 0 0 0 127 0" result="hardAlpha"/>
<feOffset/>
<feGaussianBlur stdDeviation="34"/>
<feComposite in2="hardAlpha" operator="arithmetic" k2="-1" k3="1"/>
<feColorMatrix type="matrix" values="0 0 0 0 1 0 0 0 0 1 0 0 0 0 1 0 0 0 0.05 0"/>
<feBlend mode="normal" in2="effect2_innerShadow_1865_23205" result="effect3_innerShadow_1865_23205"/>
</filter>
<filter id="filter2_bii_1865_23205" x="-80" y="-63" width="186" height="187" filterUnits="userSpaceOnUse" color-interpolation-filters="sRGB">
<feFlood flood-opacity="0" result="BackgroundImageFix"/>
<feGaussianBlur in="BackgroundImageFix" stdDeviation="43"/>
<feComposite in2="SourceAlpha" operator="in" result="effect1_backgroundBlur_1865_23205"/>
<feBlend mode="normal" in="SourceGraphic" in2="effect1_backgroundBlur_1865_23205" result="shape"/>
<feColorMatrix in="SourceAlpha" type="matrix" values="0 0 0 0 0 0 0 0 0 0 0 0 0 0 0 0 0 0 127 0" result="hardAlpha"/>
<feOffset dy="4"/>
<feGaussianBlur stdDeviation="2"/>
<feComposite in2="hardAlpha" operator="arithmetic" k2="-1" k3="1"/>
<feColorMatrix type="matrix" values="0 0 0 0 1 0 0 0 0 1 0 0 0 0 1 0 0 0 0.15 0"/>
<feBlend mode="normal" in2="shape" result="effect2_innerShadow_1865_23205"/>
<feColorMatrix in="SourceAlpha" type="matrix" values="0 0 0 0 0 0 0 0 0 0 0 0 0 0 0 0 0 0 127 0" result="hardAlpha"/>
<feOffset/>
<feGaussianBlur stdDeviation="34"/>
<feComposite in2="hardAlpha" operator="arithmetic" k2="-1" k3="1"/>
<feColorMatrix type="matrix" values="0 0 0 0 1 0 0 0 0 1 0 0 0 0 1 0 0 0 0.05 0"/>
<feBlend mode="normal" in2="effect2_innerShadow_1865_23205" result="effect3_innerShadow_1865_23205"/>
</filter>
<filter id="filter3_bii_1865_23205" x="-64" y="-63" width="186" height="187" filterUnits="userSpaceOnUse" color-interpolation-filters="sRGB">
<feFlood flood-opacity="0" result="BackgroundImageFix"/>
<feGaussianBlur in="BackgroundImageFix" stdDeviation="43"/>
<feComposite in2="SourceAlpha" operator="in" result="effect1_backgroundBlur_1865_23205"/>
<feBlend mode="normal" in="SourceGraphic" in2="effect1_backgroundBlur_1865_23205" result="shape"/>
<feColorMatrix in="SourceAlpha" type="matrix" values="0 0 0 0 0 0 0 0 0 0 0 0 0 0 0 0 0 0 127 0" result="hardAlpha"/>
<feOffset dy="4"/>
<feGaussianBlur stdDeviation="2"/>
<feComposite in2="hardAlpha" operator="arithmetic" k2="-1" k3="1"/>
<feColorMatrix type="matrix" values="0 0 0 0 1 0 0 0 0 1 0 0 0 0 1 0 0 0 0.15 0"/>
<feBlend mode="normal" in2="shape" result="effect2_innerShadow_1865_23205"/>
<feColorMatrix in="SourceAlpha" type="matrix" values="0 0 0 0 0 0 0 0 0 0 0 0 0 0 0 0 0 0 127 0" result="hardAlpha"/>
<feOffset/>
<feGaussianBlur stdDeviation="34"/>
<feComposite in2="hardAlpha" operator="arithmetic" k2="-1" k3="1"/>
<feColorMatrix type="matrix" values="0 0 0 0 1 0 0 0 0 1 0 0 0 0 1 0 0 0 0.05 0"/>
<feBlend mode="normal" in2="effect2_innerShadow_1865_23205" result="effect3_innerShadow_1865_23205"/>
</filter>
</defs>
</svg>
