<svg width="24.000000" height="24.000000" viewBox="0 0 24 24" fill="none" xmlns="http://www.w3.org/2000/svg" xmlns:xlink="http://www.w3.org/1999/xlink">
	<desc>
			Created with Pixso.
	</desc>
	<defs>
		<clipPath id="clip405_9135">
			<rect id="Bold / Business, Statistic / Round Graph" width="24.000000" height="24.000000" fill="white" fill-opacity="0"/>
		</clipPath>
		<linearGradient x1="4.000000" y1="12.000000" x2="20.000000" y2="12.000000" id="paint_linear_405_9136_0" gradientUnits="userSpaceOnUse">
			<stop stop-color="#FFEEEE"/>
			<stop offset="1.000000" stop-color="#DDEFBB"/>
		</linearGradient>
	</defs>
	<g clip-path="url(#clip405_9135)">
		<path id="Vector" d="M4 12C4 7.58 7.58 4 12 4C16.41 4 20 7.58 20 12C20 16.41 16.41 20 12 20C7.58 20 4 16.41 4 12ZM11.39 6.4C11.39 6.06 11.66 5.79 12 5.79C15.42 5.79 18.2 8.57 18.2 12C18.2 15.42 15.42 18.2 12 18.2C8.57 18.2 5.8 15.42 5.8 12C5.8 11.66 6.06 11.4 6.39 11.4C6.73 11.4 7 11.66 7 12C7 14.76 9.23 17 12 17C14.76 17 17 14.76 17 12C17 9.23 14.76 7 12 7C11.66 7 11.39 6.73 11.39 6.4ZM12 8.2C11.66 8.2 11.39 8.46 11.39 8.79C11.39 9.13 11.66 9.4 12 9.4C13.43 9.4 14.6 10.56 14.6 12C14.6 13.43 13.43 14.6 12 14.6C11.66 14.6 11.39 14.86 11.39 15.2C11.39 15.53 11.66 15.8 12 15.8C14.09 15.8 15.8 14.09 15.8 12C15.8 9.9 14.09 8.2 12 8.2Z" fill="url(#paint_linear_405_9136_0)" fill-opacity="1.000000" fill-rule="evenodd"/>
	</g>
</svg>
