<svg width="76.000000" height="64.000000" viewBox="0 0 76 64" fill="none" xmlns="http://www.w3.org/2000/svg" xmlns:xlink="http://www.w3.org/1999/xlink">
	<desc>
			Created with Pixso.
	</desc>
	<defs>
		<filter id="filter_405_14987_dd" x="2.000000" y="3.999512" width="60.001953" height="56.000488" filterUnits="userSpaceOnUse" color-interpolation-filters="sRGB">
			<feFlood flood-opacity="0" result="BackgroundImageFix"/>
			<feGaussianBlur in="BackgroundImage" stdDeviation="28.6667"/>
			<feComposite in2="SourceAlpha" operator="in" result="effect_backgroundBlur_1"/>
			<feBlend mode="normal" in="SourceGraphic" in2="effect_backgroundBlur_1" result="shape"/>
			<feColorMatrix in="SourceAlpha" type="matrix" values="0 0 0 0 0 0 0 0 0 0 0 0 0 0 0 0 0 0 127 0" result="hardAlpha"/>
			<feOffset dx="0" dy="4"/>
			<feGaussianBlur stdDeviation="1.33333"/>
			<feComposite in2="hardAlpha" operator="arithmetic" k2="-1" k3="1"/>
			<feColorMatrix type="matrix" values="0 0 0 0 1 0 0 0 0 1 0 0 0 0 1 0 0 0 0.15 0"/>
			<feBlend mode="normal" in2="shape" result="effect_innerShadow_2"/>
			<feColorMatrix in="SourceAlpha" type="matrix" values="0 0 0 0 0 0 0 0 0 0 0 0 0 0 0 0 0 0 127 0" result="hardAlpha"/>
			<feOffset dx="0" dy="0"/>
			<feGaussianBlur stdDeviation="22.6667"/>
			<feComposite in2="hardAlpha" operator="arithmetic" k2="-1" k3="1"/>
			<feColorMatrix type="matrix" values="0 0 0 0 1 0 0 0 0 1 0 0 0 0 1 0 0 0 0.051 0"/>
			<feBlend mode="normal" in2="effect_innerShadow_2" result="effect_innerShadow_3"/>
		</filter>
		<filter id="filter_405_14989_dd" x="48.000000" y="30.000000" width="26.000000" height="27.000000" filterUnits="userSpaceOnUse" color-interpolation-filters="sRGB">
			<feFlood flood-opacity="0" result="BackgroundImageFix"/>
			<feGaussianBlur in="BackgroundImage" stdDeviation="29.3333"/>
			<feComposite in2="SourceAlpha" operator="in" result="effect_backgroundBlur_1"/>
			<feBlend mode="normal" in="SourceGraphic" in2="effect_backgroundBlur_1" result="shape"/>
			<feColorMatrix in="SourceAlpha" type="matrix" values="0 0 0 0 0 0 0 0 0 0 0 0 0 0 0 0 0 0 127 0" result="hardAlpha"/>
			<feOffset dx="0" dy="2"/>
			<feGaussianBlur stdDeviation="0.666667"/>
			<feComposite in2="hardAlpha" operator="arithmetic" k2="-1" k3="1"/>
			<feColorMatrix type="matrix" values="0 0 0 0 1 0 0 0 0 1 0 0 0 0 1 0 0 0 0.3 0"/>
			<feBlend mode="normal" in2="shape" result="effect_innerShadow_2"/>
		</filter>
		<clipPath id="clip405_14988">
			<rect id="Bold / Shopping, Ecommerce / Bag 4" width="30.000000" height="30.000000" transform="translate(46.000000 28.000000)" fill="white" fill-opacity="0"/>
		</clipPath>
	</defs>
	<g filter="url(#filter_405_14987_dd)">
		<path id="Vector" d="M14.73 15.2L7.84 15.17C4.85 15.16 2.37 13.05 2.03 10.23C2.01 10.01 2 9.79 2 9.58C2 7.02 3.79 4.77 6.45 4.14C6.88 4.03 7.34 4.01 7.79 4.01C11.56 4 15.32 3.99 19.09 4C22.11 4.02 24.5 6.07 24.83 8.89C25.43 10.87 25.91 12.87 26.39 14.87C36.27 14.87 46.14 14.87 56.02 14.88C59.07 14.89 61.35 16.73 61.92 19.64C61.97 19.91 62 20.17 62 20.43C62 21.08 61.85 21.71 61.65 22.33C61.59 22.52 61.46 22.69 61.4 22.88C61.44 22.84 61.5 22.87 61.5 22.92C61.5 22.93 61.5 22.94 61.49 22.95C61.49 22.96 61.49 22.96 61.49 22.97C61.46 23.03 61.39 23 61.38 22.95C61.37 22.99 61.37 23.03 61.37 23.08C61.32 23.11 61.27 23.15 61.23 23.19C61.28 23.15 61.35 23.21 61.35 23.28C61.21 24.49 60.76 25.64 60.45 26.81C59.12 31.75 57.75 36.68 56.39 41.61C56.33 41.83 56.37 42.11 56.08 42.24C55.79 39.14 54.28 37.24 51.58 36.62C50.99 36.48 50.38 36.44 49.77 36.44C50.38 36.45 50.98 36.48 51.58 36.62C54.27 37.24 55.78 39.14 56.08 42.23L56.08 42.24C55.92 43.87 55.29 45.27 53.97 46.35C52.95 47.18 51.78 47.63 50.48 47.63C42.76 47.65 35.05 47.65 27.33 47.63C24.76 47.62 22.67 45.88 21.95 43.32C21.84 42.94 21.8 42.54 21.8 42.14C21.8 42.01 21.81 41.89 21.81 41.77C21.84 41.34 21.89 40.92 22.01 40.5C21.87 40.86 21.3 40.91 21.19 40.53C20.69 38.7 20.27 36.85 19.79 35.01C18.79 31.15 17.81 27.28 16.82 23.42C16.82 23.41 16.82 23.4 16.82 23.39C16.82 23.27 16.99 23.21 17.07 23.3C16.94 23.11 16.82 22.91 16.71 22.71L16.71 22.7L16.71 22.7C16.63 22.42 16.55 22.13 16.47 21.84C16.36 21.42 16.28 20.99 16.28 20.55C16.28 20.47 16.28 20.4 16.29 20.32C16.38 18.99 16.84 17.78 17.8 16.73C18.57 15.89 19.57 15.44 20.6 15.03L20.6 15.03L20.6 15.03C21.4 14.65 22.24 14.35 22.92 13.75C22.24 14.35 21.4 14.65 20.6 15.03L20.6 15.03C20.4 15.04 20.2 15.06 20 15.08C19.39 15.13 18.78 15.18 18.16 15.17C17.35 15.16 16.54 15.17 15.73 15.18L15.73 15.18C15.4 15.19 15.07 15.19 14.75 15.2C15.09 15.19 15.45 15.19 15.8 15.18L15.8 15.18C16.59 15.17 17.37 15.16 18.16 15.17C18.44 15.17 18.62 15.47 18.62 15.75C18.62 15.91 18.56 16.06 18.44 16.15C18.21 16.32 18 16.51 17.8 16.73C17.28 17.29 15.22 17.25 15.04 16.51C14.94 16.07 14.84 15.63 14.73 15.2L14.73 15.2ZM19.15 13.3C21.32 13.3 23 11.67 23 9.58L23 9.58C23 7.52 21.27 5.81 19.17 5.81C17.07 5.8 15.33 7.49 15.33 9.55L15.33 9.56C15.34 11.69 16.99 13.3 19.15 13.3L19.15 13.3L19.15 13.3ZM11.01 9.61Q11.01 9.6 11.01 9.59C11.01 7.82 9.58 6.4 7.77 6.39C5.96 6.39 4.46 7.8 4.43 9.54C4.43 9.56 4.43 9.57 4.43 9.59C4.43 11.28 5.93 12.75 7.7 12.78C9.47 12.81 11 11.35 11.01 9.61L11.01 9.61L11.01 9.61ZM19.18 10.94C18.35 10.95 17.76 10.41 17.75 9.61C17.75 9.6 17.75 9.59 17.75 9.58C17.75 8.76 18.35 8.16 19.18 8.18C19.97 8.19 20.6 8.81 20.6 9.57C20.6 10.34 19.99 10.93 19.18 10.94ZM54.7 26.02C53.45 26.02 52.2 26.03 50.94 26.05C50.22 26.06 49.5 26.07 48.78 26.07C48.07 26.07 47.36 26.07 46.65 26.06C44.69 26.06 42.73 26.05 40.77 26.05C36.95 26.05 33.13 26.06 29.31 26.07C28.84 26.07 28.38 26.07 27.91 26.06C28.75 26.12 29.46 26.73 29.67 27.55C30.41 30.5 31.16 33.44 31.9 36.38L31.9 36.38C34.99 36.39 38.07 36.41 41.16 36.41C42.55 36.41 43.94 36.39 45.33 36.38C45.78 36.38 46.23 36.42 46.68 36.44C47.06 36.46 47.43 36.45 47.81 36.44L47.81 36.44L47.81 36.44C48.08 36.44 48.34 36.43 48.61 36.43C48.77 36.44 48.93 36.44 49.09 36.44C48.93 36.44 48.77 36.44 48.61 36.43C48.34 36.43 48.07 36.44 47.8 36.44L47.8 36.44C47.44 36.45 47.09 36.46 46.74 36.44C46.4 36.43 46.16 36.15 46.16 35.83C46.16 35.77 46.16 35.72 46.18 35.66C46.52 34.42 46.85 33.18 47.19 31.93C48.12 28.52 51.18 26.07 54.7 26.02ZM21.88 24.14C24.01 24.16 25.76 22.52 25.81 20.45C25.81 20.42 25.81 20.4 25.81 20.37C25.81 18.37 24.07 16.65 22 16.64C19.87 16.62 18.11 18.28 18.07 20.34Q18.07 20.37 18.07 20.4C18.07 22.41 19.79 24.11 21.88 24.14ZM56.25 24.25C58.36 24.25 60.13 22.54 60.13 20.5L60.13 20.5C60.13 18.44 58.38 16.74 56.27 16.75C54.15 16.75 52.4 18.44 52.39 20.48L52.39 20.49C52.39 22.54 54.15 24.24 56.25 24.25ZM36.68 20.5L36.68 20.5C36.68 18.73 35.22 17.28 33.42 17.27C31.66 17.25 30.13 18.73 30.1 20.47C30.1 20.49 30.1 20.51 30.1 20.52C30.1 22.21 31.63 23.68 33.39 23.69C35.21 23.7 36.68 22.28 36.68 20.5ZM44.81 23.69C46.61 23.7 48.11 22.27 48.14 20.51Q48.14 20.49 48.14 20.46C48.14 18.78 46.63 17.29 44.87 17.27C43.09 17.24 41.57 18.71 41.56 20.46Q41.56 20.47 41.56 20.49C41.56 22.25 43 23.68 44.81 23.69ZM21.94 21.77C21.13 21.77 20.5 21.17 20.5 20.4L20.5 20.4C20.5 19.66 21.19 18.98 21.93 18.98C22.71 18.98 23.34 19.62 23.34 20.39L23.34 20.39C23.34 21.2 22.76 21.77 21.94 21.77ZM56.23 19.12C57.05 19.1 57.65 19.66 57.67 20.46Q57.67 20.47 57.67 20.49C57.67 21.25 57.07 21.88 56.3 21.9C55.56 21.92 54.85 21.27 54.83 20.52C54.83 20.51 54.83 20.49 54.83 20.48C54.83 19.73 55.44 19.13 56.23 19.12ZM61.37 23.08L61.37 23.08L61.37 23.08L61.37 23.08L61.37 23.08ZM27.98 31.45L27.98 31.44C27.98 29.66 26.54 28.22 24.74 28.21C22.95 28.2 21.44 29.65 21.41 31.4C21.41 31.41 21.41 31.42 21.41 31.44C21.41 33.14 22.92 34.62 24.69 34.63C26.5 34.64 27.98 33.22 27.98 31.45ZM56.58 31.5L56.58 31.48C56.58 29.73 55.13 28.28 53.33 28.24C51.6 28.21 50.03 29.71 50 31.43C50 31.45 50 31.47 50 31.48C50 33.19 51.49 34.65 53.27 34.66C55.09 34.68 56.57 33.27 56.58 31.5L56.58 31.5L56.58 31.5ZM27.45 45.78C29.58 45.8 31.33 44.13 31.34 42.06L31.34 42.05C31.34 40.01 29.64 38.32 27.58 38.3C25.42 38.28 23.62 39.98 23.62 42.04L23.62 42.05C23.63 44.06 25.38 45.77 27.45 45.78ZM50.33 45.78C52.47 45.79 54.18 44.13 54.18 42.05L54.18 42.04C54.18 39.99 52.48 38.31 50.4 38.3C48.25 38.29 46.52 39.93 46.51 42.01L46.51 42.03C46.51 44.12 48.19 45.78 50.33 45.78ZM42.19 42.03C42.19 40.26 40.74 38.86 38.91 38.86C37.11 38.86 35.61 40.31 35.61 42.05L35.61 42.05C35.62 43.76 37.16 45.25 38.93 45.26C40.7 45.26 42.19 43.79 42.19 42.04L42.19 42.03ZM27.49 43.43C26.69 43.43 26.06 42.83 26.04 42.06Q26.04 42.05 26.04 42.03L26.04 42.03C26.04 41.28 26.73 40.62 27.52 40.64C28.31 40.65 28.91 41.26 28.91 42.04L28.91 42.05C28.9 42.85 28.31 43.43 27.5 43.43L27.49 43.43L27.49 43.43ZM50.31 43.43C49.52 43.42 48.92 42.82 48.92 42.04L48.92 42.02C48.93 41.23 49.55 40.64 50.35 40.64C51.15 40.64 51.78 41.27 51.78 42.05C51.78 42.07 51.78 42.08 51.78 42.1C51.75 42.88 51.12 43.45 50.31 43.43ZM24.76 51.72C27.16 51.76 28.89 53.53 28.89 55.93C28.89 55.95 28.89 55.97 28.89 55.99C28.86 58.3 26.98 60.03 24.56 59.99C22.21 59.95 20.42 58.16 20.42 55.85C20.42 55.83 20.42 55.81 20.42 55.79C20.45 53.43 22.31 51.69 24.76 51.72L24.76 51.72ZM53.14 60C50.74 59.98 48.92 58.18 48.92 55.83C48.92 55.82 48.92 55.8 48.92 55.79C48.95 53.48 50.81 51.72 53.21 51.72C55.57 51.73 57.45 53.56 57.45 55.85L57.45 55.86C57.45 58.18 55.54 60.01 53.15 60L53.14 60Z" fill="#FFFFFF" fill-opacity="0.030000" fill-rule="evenodd"/>
	</g>
	<g clip-path="url(#clip405_14988)">
		<g filter="url(#filter_405_14989_dd)">
			<path id="Vector" d="M55.68 36.51C55.69 36.51 55.7 36.5 55.7 36.49L55.7 35.12C55.7 32.29 58.07 30 61 30C63.92 30 66.29 32.29 66.29 35.12L66.29 36.49C66.29 36.5 66.3 36.51 66.31 36.51C68.13 36.56 69.24 36.74 70.09 37.42C71.26 38.35 71.58 39.93 72.24 43.08L73.08 47.18C74.02 51.72 74.49 53.99 73.22 55.49C71.95 57 69.56 57 64.78 57L57.21 57C52.43 57 50.04 57 48.77 55.49C47.5 53.99 47.97 51.72 48.91 47.18L49.75 43.08C50.41 39.93 50.73 38.35 51.9 37.42C52.75 36.74 53.86 36.56 55.68 36.51ZM57.82 35.12C57.82 33.42 59.24 32.05 61 32.05C62.75 32.05 64.17 33.42 64.17 35.12L64.17 36.25C64.17 36.38 64.06 36.49 63.93 36.49L58.06 36.49C57.93 36.49 57.82 36.38 57.82 36.25L57.82 35.12ZM65.23 41.96C66.01 41.96 66.64 41.35 66.64 40.59C66.64 39.83 66.01 39.22 65.23 39.22C64.45 39.22 63.82 39.83 63.82 40.59C63.82 41.35 64.45 41.96 65.23 41.96ZM58.17 40.59C58.17 41.35 57.54 41.96 56.76 41.96C55.98 41.96 55.35 41.35 55.35 40.59C55.35 39.83 55.98 39.22 56.76 39.22C57.54 39.22 58.17 39.83 58.17 40.59Z" fill="#59B3A8" fill-opacity="1.000000" fill-rule="evenodd"/>
		</g>
	</g>
</svg>
