<svg width="20.000000" height="20.000000" viewBox="0 0 20 20" fill="none" xmlns="http://www.w3.org/2000/svg" xmlns:xlink="http://www.w3.org/1999/xlink">
	<desc>
			Created with Pixso.
	</desc>
	<defs>
		<clipPath id="clip21_20688">
			<rect id="check" rx="-0.500000" width="9.000000" height="9.000000" transform="translate(5.500000 5.500000)" fill="white" fill-opacity="0"/>
		</clipPath>
	</defs>
	<rect id="check" rx="9.500000" width="19.000000" height="19.000000" transform="translate(0.500000 0.500000)" fill="#0C0E10" fill-opacity="1.000000"/>
	<path id="Subtract" d="M18 10C18 5.58173 14.418 2 10 2C5.58203 2 2 5.58173 2 10C2 14.4183 5.58203 18 10 18C14.418 18 18 14.4183 18 10ZM14.041 8.20711L9.45703 12.7904Q9.16406 13.0833 8.75 13.0833Q8.33594 13.0833 8.04297 12.7904L5.95898 10.7071C5.56445 10.3111 5.56445 9.68887 5.95898 9.29289C6.35547 8.89691 6.97852 8.89691 7.37305 9.29289L8.75 10.6691L12.627 6.79289C13.0215 6.39691 13.6445 6.39691 14.041 6.79289C14.4355 7.18887 14.4355 7.81113 14.041 8.20711Z" clip-rule="evenodd" fill="#59B2A8" fill-opacity="1.000000" fill-rule="evenodd"/>
</svg>
