<svg width="24.000000" height="24.000000" viewBox="0 0 24 24" fill="none" xmlns="http://www.w3.org/2000/svg" xmlns:xlink="http://www.w3.org/1999/xlink">
	<desc>
			Created with Pixso.
	</desc>
	<defs/>
	<rect id="vuesax/bulk/windows" width="24.000000" height="24.000000" fill="#FFFFFF" fill-opacity="0"/>
	<path id="Vector" d="M12.62 4.62C12.62 4.28 12.34 4 12 4C11.65 4 11.37 4.28 11.37 4.62L11.37 7.13C10.91 7.14 10.49 7.14 10.11 7.15L10.11 7.13L10.11 4.62C10.11 4.28 9.83 4 9.48 4C9.14 4 8.86 4.28 8.86 4.62L8.86 7.13C8.86 7.17 8.86 7.2 8.86 7.23C8.02 7.33 7.44 7.55 6.99 7.99C6.55 8.44 6.33 9.02 6.23 9.86C6.2 9.86 6.17 9.86 6.13 9.86L3.62 9.86C3.28 9.86 3 10.14 3 10.48C3 10.83 3.28 11.11 3.62 11.11L6.13 11.11L6.15 11.11C6.14 11.49 6.14 11.91 6.13 12.37L3.62 12.37C3.28 12.37 3 12.65 3 13C3 13.34 3.28 13.62 3.62 13.62L6.13 13.62C6.14 14.08 6.14 14.5 6.15 14.88L6.13 14.88L3.62 14.88C3.28 14.88 3 15.16 3 15.51C3 15.85 3.28 16.13 3.62 16.13L6.13 16.13C6.17 16.13 6.2 16.13 6.23 16.13C6.33 16.97 6.55 17.55 6.99 18C7.44 18.44 8.02 18.66 8.86 18.76C8.86 18.79 8.86 18.82 8.86 18.86L8.86 21.37C8.86 21.71 9.14 22 9.48 22C9.83 22 10.11 21.71 10.11 21.37L10.11 18.86L10.11 18.84C10.49 18.85 10.91 18.85 11.37 18.85L11.37 21.37C11.37 21.71 11.65 22 12 22C12.34 22 12.62 21.71 12.62 21.37L12.62 18.86C13.08 18.85 13.5 18.85 13.88 18.84L13.88 18.86L13.88 21.37C13.88 21.71 14.16 22 14.51 22C14.85 22 15.13 21.71 15.13 21.37L15.13 18.86C15.13 18.82 15.13 18.79 15.13 18.76C15.97 18.66 16.55 18.44 17 18C17.44 17.55 17.66 16.97 17.76 16.13C17.79 16.13 17.82 16.13 17.86 16.13L20.37 16.13C20.71 16.13 21 15.85 21 15.51C21 15.16 20.71 14.88 20.37 14.88L17.86 14.88L17.84 14.88C17.85 14.5 17.85 14.08 17.86 13.62L20.37 13.62C20.71 13.62 21 13.34 21 13C21 12.65 20.71 12.37 20.37 12.37L17.86 12.37C17.85 11.91 17.85 11.49 17.84 11.11L17.86 11.11L20.37 11.11C20.71 11.11 21 10.83 21 10.48C21 10.14 20.71 9.86 20.37 9.86L17.86 9.86C17.82 9.86 17.79 9.86 17.76 9.86C17.66 9.02 17.44 8.44 17 7.99C16.55 7.55 15.97 7.33 15.13 7.23C15.13 7.2 15.13 7.17 15.13 7.13L15.13 4.62C15.13 4.28 14.85 4 14.51 4C14.16 4 13.88 4.28 13.88 4.62L13.88 7.13L13.88 7.15C13.5 7.14 13.08 7.14 12.62 7.14L12.62 4.62ZM9.7 9.07C10.08 9.02 10.56 9.02 11.12 9.02L12.87 9.02C13.43 9.02 13.91 9.02 14.29 9.07C14.71 9.13 15.1 9.25 15.42 9.57C15.74 9.89 15.87 10.28 15.92 10.7C15.97 11.08 15.97 11.56 15.97 12.12L15.97 13.87C15.97 14.43 15.97 14.91 15.92 15.29C15.87 15.71 15.74 16.1 15.42 16.42C15.1 16.74 14.71 16.86 14.29 16.92C13.91 16.97 13.43 16.97 12.87 16.97L11.12 16.97C10.56 16.97 10.08 16.97 9.7 16.92C9.29 16.86 8.89 16.74 8.57 16.42C8.25 16.1 8.12 15.71 8.07 15.29C8.02 14.91 8.02 14.43 8.02 13.87L8.02 12.12C8.02 11.56 8.02 11.08 8.07 10.7C8.12 10.28 8.25 9.89 8.57 9.57C8.89 9.25 9.29 9.13 9.7 9.07ZM9.86 10.31C9.59 10.35 9.51 10.41 9.46 10.46C9.41 10.51 9.35 10.59 9.31 10.86C9.28 11.15 9.27 11.55 9.27 12.16L9.27 13.83C9.27 14.44 9.28 14.84 9.31 15.13C9.35 15.4 9.41 15.48 9.46 15.53C9.51 15.58 9.59 15.64 9.86 15.68C10.15 15.71 10.55 15.72 11.16 15.72L12.83 15.72C13.44 15.72 13.84 15.71 14.13 15.68C14.4 15.64 14.48 15.58 14.53 15.53C14.58 15.48 14.64 15.4 14.68 15.13C14.71 14.84 14.72 14.44 14.72 13.83L14.72 12.16C14.72 11.55 14.71 11.15 14.68 10.86C14.64 10.59 14.58 10.51 14.53 10.46C14.48 10.41 14.4 10.35 14.13 10.31C13.84 10.28 13.44 10.27 12.83 10.27L11.16 10.27C10.55 10.27 10.15 10.28 9.86 10.31Z" fill="#3B87C6" fill-opacity="1.000000" fill-rule="evenodd"/>
</svg>
