<svg width="22.000000" height="22.000000" viewBox="0 0 22 22" fill="none" xmlns="http://www.w3.org/2000/svg" xmlns:xlink="http://www.w3.org/1999/xlink">
	<desc>
			Created with Pixso.
	</desc>
	<defs/>
	<path d="M20.12 15.34C19.81 17.8 17.8 19.81 15.34 20.12C13.85 20.3 12.46 19.9 11.38 19.1C10.76 18.65 10.91 17.69 11.65 17.47C14.43 16.62 16.62 14.43 17.47 11.64C17.7 10.91 18.66 10.77 19.11 11.38C19.9 12.47 20.3 13.85 20.12 15.34Z" fill="#595962" fill-opacity="1.000000" fill-rule="nonzero"/>
	<path d="M9.16 1.83C5.11 1.83 1.83 5.11 1.83 9.16C1.83 13.21 5.11 16.5 9.16 16.5C13.21 16.5 16.5 13.21 16.5 9.16C16.49 5.11 13.21 1.83 9.16 1.83ZM8.3 8.13L10.51 8.9C11.31 9.19 11.7 9.75 11.7 10.61C11.7 11.6 10.91 12.42 9.94 12.42L9.86 12.42L9.86 12.47C9.86 12.84 9.55 13.15 9.17 13.15C8.8 13.15 8.48 12.84 8.48 12.47L8.48 12.41C7.46 12.37 6.65 11.51 6.65 10.45C6.65 10.07 6.96 9.76 7.34 9.76C7.71 9.76 8.02 10.07 8.02 10.45C8.02 10.78 8.26 11.04 8.56 11.04L9.93 11.04C10.14 11.04 10.31 10.85 10.31 10.61C10.31 10.29 10.25 10.27 10.04 10.2L7.83 9.43C7.04 9.15 6.65 8.59 6.65 7.72C6.65 6.73 7.44 5.91 8.4 5.91L8.48 5.91L8.48 5.88C8.48 5.5 8.8 5.19 9.17 5.19C9.55 5.19 9.86 5.5 9.86 5.88L9.86 5.93C10.88 5.98 11.7 6.83 11.7 7.9C11.7 8.27 11.38 8.58 11.01 8.58C10.63 8.58 10.32 8.27 10.32 7.9C10.32 7.56 10.08 7.3 9.79 7.3L8.41 7.3C8.2 7.3 8.03 7.49 8.03 7.73C8.02 8.04 8.08 8.06 8.3 8.13Z" fill="#595962" fill-opacity="1.000000" fill-rule="nonzero"/>
	<g opacity="0.000000"/>
</svg>
