<svg width="28.000000" height="28.000000" viewBox="0 0 28 28" fill="none" xmlns="http://www.w3.org/2000/svg" xmlns:xlink="http://www.w3.org/1999/xlink">
	<desc>
			Created with Pixso.
	</desc>
	<defs>
		<clipPath id="clip405_14565">
			<rect id="Bold / Users / Users Group Two Rounded" rx="5.000000" width="28.000000" height="28.000000" fill="white" fill-opacity="0"/>
		</clipPath>
	</defs>
	<g clip-path="url(#clip405_14565)">
		<path id="Vector" d="M17.26 9.79C17.26 11.6 15.8 13.06 14 13.06C12.19 13.06 10.73 11.6 10.73 9.79C10.73 7.99 12.19 6.53 14 6.53C15.8 6.53 17.26 7.99 17.26 9.79Z" fill="#FFCE34" fill-opacity="1.000000" fill-rule="nonzero"/>
		<path id="Vector" d="M19.6 18.2C19.6 20 17.09 21.46 14 21.46C10.9 21.46 8.4 20 8.4 18.2C8.4 16.39 10.9 14.93 14 14.93C17.09 14.93 19.6 16.39 19.6 18.2Z" fill="#FFCE34" fill-opacity="1.000000" fill-rule="nonzero"/>
		<path id="Vector" d="M9.93 7.51C9.77 7.48 9.61 7.46 9.44 7.46C8.12 7.46 7.05 8.49 7.05 9.77C7.05 11.04 8.12 12.07 9.44 12.07C9.6 12.07 9.75 12.06 9.9 12.03C9.54 11.37 9.33 10.61 9.33 9.8C9.33 8.96 9.55 8.18 9.93 7.51ZM7 18.2C7 19.1 7.35 19.88 7.88 20.52C6.08 20.39 4.66 19.41 4.66 18.22C4.66 17.04 6.05 16.07 7.83 15.93C7.33 16.56 7 17.31 7 18.2Z" fill="#FFCE34" fill-opacity="1.000000" fill-rule="evenodd"/>
		<path id="Vector" d="M18.09 12.03C18.45 11.37 18.66 10.61 18.66 9.8C18.66 8.96 18.45 8.18 18.06 7.51C18.22 7.48 18.38 7.46 18.55 7.46C19.87 7.46 20.94 8.49 20.94 9.77C20.94 11.04 19.87 12.07 18.55 12.07C18.39 12.07 18.24 12.06 18.09 12.03ZM23.33 18.22C23.33 19.41 21.91 20.39 20.11 20.52C20.64 19.88 21 19.1 21 18.2C21 17.31 20.66 16.56 20.16 15.93C21.94 16.07 23.33 17.04 23.33 18.22Z" fill="#FFCE34" fill-opacity="1.000000" fill-rule="evenodd"/>
	</g>
</svg>
