<svg width="20.000000" height="20.000000" viewBox="0 0 20 20" fill="none" xmlns="http://www.w3.org/2000/svg" xmlns:xlink="http://www.w3.org/1999/xlink">
	<desc>
			Created with Pixso.
	</desc>
	<defs>
		<clipPath id="clip49_3919">
			<rect id="copy" rx="-0.500000" width="19.000000" height="19.000000" transform="translate(0.500000 0.500000)" fill="white" fill-opacity="0"/>
		</clipPath>
	</defs>
	<rect id="copy" rx="-0.500000" width="19.000000" height="19.000000" transform="translate(0.500000 0.500000)" fill="#FFFFFF" fill-opacity="0"/>
	<g clip-path="url(#clip49_3919)">
		<path id="Vector" d="M16.46 8C17.31 8 18 8.68 18 9.53L18 16.46C18 17.31 17.31 18 16.46 18L9.53 18C8.68 18 8 17.31 8 16.46L8 9.53C8 8.68 8.68 8 9.53 8L16.46 8Z" stroke="#8A8A98" stroke-opacity="1.000000" stroke-width="1.500000" stroke-linejoin="round"/>
		<path id="Vector" d="M4.3 12L3.53 12C3.13 12 2.73 11.83 2.45 11.54C2.16 11.26 2 10.86 2 10.46L2 3.53C2 3.13 2.16 2.73 2.45 2.45C2.73 2.16 3.13 2 3.53 2L10.46 2C10.86 2 11.26 2.16 11.54 2.45C11.83 2.73 12 3.13 12 3.53L12 4.3" stroke="#8A8A98" stroke-opacity="1.000000" stroke-width="1.500000" stroke-linejoin="round" stroke-linecap="round"/>
	</g>
</svg>
