<svg width="24.000000" height="24.000000" viewBox="0 0 24 24" fill="none" xmlns="http://www.w3.org/2000/svg" xmlns:xlink="http://www.w3.org/1999/xlink">
	<desc>
			Created with Pixso.
	</desc>
	<defs>
		<filter id="filter_405_14347_dd" x="0.000000" y="0.000000" width="24.000000" height="24.000000" filterUnits="userSpaceOnUse" color-interpolation-filters="sRGB">
			<feFlood flood-opacity="0" result="BackgroundImageFix"/>
			<feBlend mode="normal" in="SourceGraphic" in2="BackgroundImageFix" result="shape"/>
			<feColorMatrix in="SourceAlpha" type="matrix" values="0 0 0 0 0 0 0 0 0 0 0 0 0 0 0 0 0 0 127 0" result="hardAlpha"/>
			<feOffset dx="-2" dy="2"/>
			<feGaussianBlur stdDeviation="2"/>
			<feComposite in2="hardAlpha" operator="arithmetic" k2="-1" k3="1"/>
			<feColorMatrix type="matrix" values="0 0 0 0 1 0 0 0 0 1 0 0 0 0 1 0 0 0 0.41 0"/>
			<feBlend mode="normal" in2="shape" result="effect_innerShadow_1"/>
		</filter>
	</defs>
	<g filter="url(#filter_405_14347_dd)">
		<path id="digiseller_logo" d="M0.75 0.78C0.33 1.22 0 1.94 0 2.4C0 2.86 0.33 3.59 0.75 4.02C1.38 4.68 1.8 4.81 3.32 4.81L5.14 4.81L6.63 11.08C7.54 14.89 8.34 17.61 8.67 17.98C9.18 18.55 9.69 18.6 14.84 18.6C20.01 18.6 20.5 18.55 21 17.98C21.29 17.64 22.13 15.03 22.87 12.19C24.84 4.56 25.07 4.81 16.38 4.81L9.84 4.81L9.52 3.6C9.35 2.94 9.2 2.21 9.2 1.99C9.2 1.76 8.86 1.22 8.45 0.78C7.75 0.05 7.48 0 4.6 0C1.72 0 1.45 0.05 0.75 0.78ZM8.31 1.83C8.65 2.8 7.83 3.84 6.72 3.84C5.73 3.84 5.17 2.95 5.45 1.82C5.77 0.54 7.85 0.54 8.31 1.83ZM3.2 1.46C3.46 1.74 3.68 2.12 3.68 2.32C3.68 2.82 2.73 3.84 2.27 3.84C1.75 3.84 0.92 2.95 0.92 2.4C0.92 2.16 1.13 1.74 1.4 1.46C1.66 1.18 2.07 0.96 2.3 0.96C2.53 0.96 2.93 1.18 3.2 1.46ZM6.44 2.4C6.44 2.67 6.65 2.88 6.9 2.88C7.15 2.88 7.36 2.67 7.36 2.4C7.36 2.14 7.15 1.92 6.9 1.92C6.65 1.92 6.44 2.14 6.44 2.4ZM8.91 5.78C10.03 6.41 9.36 8.66 8.05 8.66C7.37 8.66 6.44 7.71 6.44 7.03C6.44 6.33 7.24 5.45 7.86 5.45C8.11 5.45 8.59 5.6 8.91 5.78ZM22.85 5.97C23.45 6.6 23.35 7.99 22.67 8.43C21.88 8.95 20.59 8.43 20.37 7.52C19.99 5.95 21.77 4.84 22.85 5.97ZM13.65 7.05C13.65 7.98 13.53 8.19 12.94 8.28C11.63 8.47 10.84 7.07 11.73 6.14C11.94 5.92 12.46 5.78 12.88 5.84C13.54 5.92 13.65 6.09 13.65 7.05ZM18.25 7.05C18.25 7.98 18.13 8.19 17.54 8.28C16.24 8.47 15.44 7.07 16.33 6.14C16.54 5.92 17.06 5.78 17.48 5.84C18.14 5.92 18.25 6.09 18.25 7.05ZM7.5 6.76C7.18 7.29 7.89 7.91 8.31 7.46C8.67 7.09 8.45 6.41 7.97 6.41C7.82 6.41 7.61 6.57 7.5 6.76ZM21.3 6.76C20.99 7.29 21.7 7.91 22.12 7.46C22.47 7.09 22.25 6.41 21.78 6.41C21.63 6.41 21.42 6.57 21.3 6.76ZM18.59 10.18C18.5 10.49 18.27 11.43 18.08 12.26L17.72 13.79L14.88 13.79L12.04 13.79L11.54 11.92C11.27 10.9 11.04 9.96 11.04 9.84C11.04 9.72 12.78 9.62 14.9 9.62C18.42 9.62 18.74 9.67 18.59 10.18ZM9.95 10.76C10.55 11.39 10.56 12.31 9.98 12.81C9.37 13.34 8.59 13.13 8.06 12.29C7.66 11.66 7.68 11.52 8.26 10.92C9.02 10.13 9.31 10.1 9.95 10.76ZM21.45 10.88C22.2 11.66 21.96 12.77 20.97 13.03C20.57 13.13 20.03 13.04 19.78 12.82C19.16 12.28 19.2 11.01 19.86 10.61C20.61 10.15 20.78 10.18 21.45 10.88ZM11.29 15.14C11.76 15.63 11.76 17.08 11.29 17.57C10.67 18.22 9.56 18.02 9.02 17.16C8.55 16.41 8.55 16.3 9.02 15.55C9.56 14.69 10.67 14.49 11.29 15.14ZM20.49 15.14C21.07 15.75 20.94 17.25 20.27 17.63C19.33 18.15 18.76 18.02 18.22 17.16C17.76 16.41 17.76 16.3 18.22 15.55C18.76 14.69 19.87 14.49 20.49 15.14ZM15.95 15.71C16.18 16.17 16.18 16.54 15.95 17C15.37 18.13 13.5 17.64 13.5 16.35C13.5 15.07 15.37 14.58 15.95 15.71ZM9.87 16.21C10.01 16.91 10.55 16.95 10.68 16.27C10.74 15.92 10.59 15.71 10.27 15.71C9.98 15.71 9.81 15.92 9.87 16.21ZM19.07 16.17C19.12 16.47 19.31 16.7 19.48 16.69C19.93 16.67 19.85 15.95 19.37 15.78C19.11 15.69 19 15.84 19.07 16.17ZM7.77 21.36C7.3 22.12 7.29 22.29 7.69 23.05C8.24 24.08 9.35 24.3 10.15 23.55C11.3 22.46 10.58 20.52 9.03 20.52C8.57 20.52 8.09 20.84 7.77 21.36ZM19.55 20.87C18.76 21.35 18.83 23.29 19.66 23.75C21.27 24.65 22.95 22.9 21.97 21.34C21.43 20.48 20.49 20.3 19.55 20.87Z" fill="#E75A64" fill-opacity="0.800000" fill-rule="evenodd"/>
	</g>
</svg>
