<svg width="20.000000" height="15.000000" viewBox="0 0 20 15" fill="none" xmlns="http://www.w3.org/2000/svg" xmlns:xlink="http://www.w3.org/1999/xlink">
	<desc>
			Created with Pixso.
	</desc>
	<defs/>
	<path id="Vector" d="M16.93 0.46C15.65 -0.13 14.28 -0.56 12.85 -0.8C12.83 -0.81 12.8 -0.8 12.79 -0.77C12.61 -0.46 12.42 -0.05 12.28 0.27C10.75 0.04 9.22 0.04 7.71 0.27C7.57 -0.06 7.37 -0.46 7.2 -0.77C7.18 -0.8 7.16 -0.81 7.13 -0.8C5.7 -0.56 4.33 -0.13 3.06 0.46C3.05 0.46 3.04 0.47 3.03 0.48C0.44 4.35 -0.27 8.13 0.08 11.86C0.08 11.88 0.09 11.9 0.1 11.91C1.82 13.17 3.47 13.93 5.1 14.44C5.12 14.44 5.15 14.43 5.17 14.41C5.55 13.89 5.9 13.33 6.19 12.75C6.21 12.72 6.19 12.68 6.16 12.66C5.61 12.46 5.09 12.21 4.59 11.92C4.56 11.9 4.55 11.84 4.59 11.81C4.69 11.73 4.8 11.65 4.9 11.57C4.92 11.56 4.94 11.55 4.96 11.56C8.24 13.06 11.78 13.06 15.01 11.56C15.04 11.55 15.06 11.55 15.08 11.57C15.18 11.65 15.28 11.73 15.39 11.81C15.43 11.84 15.42 11.9 15.39 11.92C14.89 12.21 14.37 12.46 13.82 12.66C13.79 12.68 13.77 12.72 13.79 12.75C14.09 13.33 14.43 13.89 14.81 14.41C14.83 14.43 14.85 14.44 14.88 14.44C16.51 13.93 18.17 13.17 19.88 11.91C19.9 11.9 19.91 11.88 19.91 11.87C20.33 7.55 19.21 3.8 16.95 0.48C16.95 0.47 16.94 0.46 16.93 0.46ZM6.68 9.59C5.69 9.59 4.88 8.69 4.88 7.58C4.88 6.47 5.68 5.56 6.68 5.56C7.69 5.56 8.49 6.47 8.48 7.58C8.48 8.69 7.68 9.59 6.68 9.59ZM13.32 9.59C12.34 9.59 11.53 8.69 11.53 7.58C11.53 6.47 12.32 5.56 13.32 5.56C14.33 5.56 15.14 6.47 15.12 7.58C15.12 8.69 14.33 9.59 13.32 9.59Z" fill="#595962" fill-opacity="1.000000" fill-rule="nonzero"/>
</svg>
