<svg width="42" height="42" viewBox="0 0 42 42" fill="none" xmlns="http://www.w3.org/2000/svg">
<rect width="42" height="42" rx="6" fill="#F7B803" fill-opacity="0.03"/>
<g filter="url(#filter0_bi_1865_16914)">
<path fill-rule="evenodd" clip-rule="evenodd" d="M20.8534 6.0031C23.1548 5.95412 25.4619 6.48704 27.5333 7.48583C29.2679 8.32835 30.8391 9.50381 32.1284 10.9358C32.422 11.2565 32.3158 11.8203 31.9405 12.0296C31.6883 12.1888 31.3831 12.1101 31.1047 12.106C29.3998 12.0582 27.7113 12.3672 26.0508 12.7188C25.8022 12.7433 25.5483 12.6238 25.4053 12.4209C24.1382 10.6099 22.6563 8.93241 20.9089 7.57037C20.6941 7.38729 20.4028 7.25377 20.3118 6.96632C20.16 6.56984 20.4209 6.06141 20.8534 6.0031Z" fill="#FF011D"/>
</g>
<g filter="url(#filter1_bi_1865_16914)">
<path fill-rule="evenodd" clip-rule="evenodd" d="M15.224 7.14492C15.4347 7.06388 15.6682 7.11402 15.8578 7.2248C17.4028 8.02826 18.7627 9.14891 19.9732 10.3926C20.7313 11.1721 21.43 12.0094 22.0708 12.8875C22.3556 13.2537 22.1677 13.8554 21.7224 13.9907C19.466 14.7778 17.2662 15.7235 15.1341 16.8004C12.4225 18.1905 9.8013 19.7869 7.45444 21.7367C7.25308 21.9005 7.05698 22.1244 6.77332 22.118C6.39453 22.1582 6.01808 21.8439 6.00524 21.4614C5.96788 19.9997 6.13014 18.5316 6.50017 17.1165C7.27409 14.1195 9.03088 11.392 11.4262 9.43053C12.5701 8.48888 13.8518 7.70816 15.224 7.14492Z" fill="#0470B8"/>
</g>
<g filter="url(#filter2_bi_1865_16914)">
<path fill-rule="evenodd" clip-rule="evenodd" d="M32.2823 14.8469C33.0194 14.809 33.7735 14.8393 34.485 15.0568C34.6998 15.118 34.883 15.2795 34.9612 15.4906C35.6704 17.2934 36.0352 19.235 35.9972 21.1737C35.9879 25.0592 34.3484 28.901 31.5807 31.6263C31.3484 31.8537 31.1231 32.0921 30.8599 32.2857C30.5237 32.5102 30.0189 32.3726 29.8339 32.0169C29.7387 31.8554 29.7282 31.6601 29.7708 31.4817C30.3247 28.9448 30.3533 26.3087 29.9652 23.7462C29.6074 21.3865 28.9064 19.0823 27.9335 16.9039C27.836 16.6742 27.6831 16.4421 27.728 16.1815C27.7671 15.897 27.9825 15.641 28.2668 15.5786C29.5835 15.2352 30.92 14.9285 32.2823 14.8469Z" fill="#2FA851"/>
</g>
<g filter="url(#filter3_bi_1865_16914)">
<path fill-rule="evenodd" clip-rule="evenodd" d="M23.8982 16.9662C24.2175 16.8887 24.5758 17.0554 24.7136 17.3539C25.8097 19.7002 26.5702 22.2085 26.8877 24.7792C27.3231 28.2578 26.8935 31.8722 25.4531 35.0825C25.3655 35.2738 25.1846 35.4102 24.9826 35.4615C22.5301 36.1361 19.9072 36.1775 17.4355 35.5805C15.4283 35.0971 13.5308 34.1759 11.8995 32.9136C10.0955 31.5235 8.62057 29.7236 7.56358 27.7103C7.41708 27.4584 7.44568 27.1278 7.62428 26.8998C8.70637 25.4311 10.1019 24.2253 11.5686 23.1525C13.3773 21.8394 15.3296 20.7357 17.3281 19.7387C19.4642 18.695 21.657 17.7598 23.8982 16.9662Z" fill="#F7B803"/>
</g>
<defs>
<filter id="filter0_bi_1865_16914" x="-67.7317" y="-82" width="188.029" height="182.722" filterUnits="userSpaceOnUse" color-interpolation-filters="sRGB">
<feFlood flood-opacity="0" result="BackgroundImageFix"/>
<feGaussianBlur in="BackgroundImageFix" stdDeviation="44"/>
<feComposite in2="SourceAlpha" operator="in" result="effect1_backgroundBlur_1865_16914"/>
<feBlend mode="normal" in="SourceGraphic" in2="effect1_backgroundBlur_1865_16914" result="shape"/>
<feColorMatrix in="SourceAlpha" type="matrix" values="0 0 0 0 0 0 0 0 0 0 0 0 0 0 0 0 0 0 127 0" result="hardAlpha"/>
<feOffset dy="2"/>
<feGaussianBlur stdDeviation="1"/>
<feComposite in2="hardAlpha" operator="arithmetic" k2="-1" k3="1"/>
<feColorMatrix type="matrix" values="0 0 0 0 1 0 0 0 0 1 0 0 0 0 1 0 0 0 0.3 0"/>
<feBlend mode="normal" in2="shape" result="effect2_innerShadow_1865_16914"/>
</filter>
<filter id="filter1_bi_1865_16914" x="-82" y="-80.895" width="192.206" height="191.017" filterUnits="userSpaceOnUse" color-interpolation-filters="sRGB">
<feFlood flood-opacity="0" result="BackgroundImageFix"/>
<feGaussianBlur in="BackgroundImageFix" stdDeviation="44"/>
<feComposite in2="SourceAlpha" operator="in" result="effect1_backgroundBlur_1865_16914"/>
<feBlend mode="normal" in="SourceGraphic" in2="effect1_backgroundBlur_1865_16914" result="shape"/>
<feColorMatrix in="SourceAlpha" type="matrix" values="0 0 0 0 0 0 0 0 0 0 0 0 0 0 0 0 0 0 127 0" result="hardAlpha"/>
<feOffset dy="2"/>
<feGaussianBlur stdDeviation="1"/>
<feComposite in2="hardAlpha" operator="arithmetic" k2="-1" k3="1"/>
<feColorMatrix type="matrix" values="0 0 0 0 1 0 0 0 0 1 0 0 0 0 1 0 0 0 0.3 0"/>
<feBlend mode="normal" in2="shape" result="effect2_innerShadow_1865_16914"/>
</filter>
<filter id="filter2_bi_1865_16914" x="-60.28" y="-73.167" width="184.28" height="193.562" filterUnits="userSpaceOnUse" color-interpolation-filters="sRGB">
<feFlood flood-opacity="0" result="BackgroundImageFix"/>
<feGaussianBlur in="BackgroundImageFix" stdDeviation="44"/>
<feComposite in2="SourceAlpha" operator="in" result="effect1_backgroundBlur_1865_16914"/>
<feBlend mode="normal" in="SourceGraphic" in2="effect1_backgroundBlur_1865_16914" result="shape"/>
<feColorMatrix in="SourceAlpha" type="matrix" values="0 0 0 0 0 0 0 0 0 0 0 0 0 0 0 0 0 0 127 0" result="hardAlpha"/>
<feOffset dy="2"/>
<feGaussianBlur stdDeviation="1"/>
<feComposite in2="hardAlpha" operator="arithmetic" k2="-1" k3="1"/>
<feColorMatrix type="matrix" values="0 0 0 0 1 0 0 0 0 1 0 0 0 0 1 0 0 0 0.3 0"/>
<feBlend mode="normal" in2="shape" result="effect2_innerShadow_1865_16914"/>
</filter>
<filter id="filter3_bi_1865_16914" x="-80.5303" y="-71.0527" width="195.58" height="195.053" filterUnits="userSpaceOnUse" color-interpolation-filters="sRGB">
<feFlood flood-opacity="0" result="BackgroundImageFix"/>
<feGaussianBlur in="BackgroundImageFix" stdDeviation="44"/>
<feComposite in2="SourceAlpha" operator="in" result="effect1_backgroundBlur_1865_16914"/>
<feBlend mode="normal" in="SourceGraphic" in2="effect1_backgroundBlur_1865_16914" result="shape"/>
<feColorMatrix in="SourceAlpha" type="matrix" values="0 0 0 0 0 0 0 0 0 0 0 0 0 0 0 0 0 0 127 0" result="hardAlpha"/>
<feOffset dy="2"/>
<feGaussianBlur stdDeviation="1"/>
<feComposite in2="hardAlpha" operator="arithmetic" k2="-1" k3="1"/>
<feColorMatrix type="matrix" values="0 0 0 0 1 0 0 0 0 1 0 0 0 0 1 0 0 0 0.3 0"/>
<feBlend mode="normal" in2="shape" result="effect2_innerShadow_1865_16914"/>
</filter>
</defs>
</svg>
