<svg width="24.000000" height="16.000000" viewBox="0 0 24 16" fill="none" xmlns="http://www.w3.org/2000/svg" xmlns:xlink="http://www.w3.org/1999/xlink">
	<desc>
			Created with Pixso.
	</desc>
	<defs/>
	<path id="Vector" d="M21.02 2.02C19.37 0.74 17.39 0.1 15.3 0L14.97 0.32C16.84 0.74 18.49 1.59 20.03 2.77C18.16 1.81 16.07 1.17 13.87 0.95C13.21 0.85 12.66 0.85 12 0.85C11.33 0.85 10.78 0.85 10.12 0.95C7.92 1.17 5.83 1.81 3.96 2.77C5.5 1.59 7.15 0.74 9.02 0.32L8.69 0C6.6 0.1 4.62 0.74 2.97 2.02C1.1 5.44 0.1 9.28 0 13.22C1.65 14.93 3.96 16 6.38 16C6.38 16 7.15 15.14 7.7 14.4C6.27 14.08 4.95 13.33 4.07 12.16C4.84 12.58 5.61 13.01 6.38 13.33C7.37 13.76 8.36 13.97 9.35 14.18C10.23 14.29 11.11 14.4 12 14.4C12.88 14.4 13.76 14.29 14.64 14.18C15.63 13.97 16.62 13.76 17.61 13.33C18.38 13.01 19.15 12.58 19.92 12.16C19.04 13.33 17.72 14.08 16.29 14.4C16.84 15.14 17.61 16 17.61 16C20.03 16 22.34 14.93 24 13.22C23.89 9.28 22.89 5.44 21.02 2.02ZM8.36 11.3C7.26 11.3 6.27 10.34 6.27 9.17C6.27 8 7.26 7.04 8.36 7.04C9.46 7.04 10.45 8 10.45 9.17C10.45 10.34 9.46 11.3 8.36 11.3ZM15.63 11.3C14.53 11.3 13.54 10.34 13.54 9.17C13.54 8 14.53 7.04 15.63 7.04C16.73 7.04 17.72 8 17.72 9.17C17.72 10.34 16.73 11.3 15.63 11.3Z" fill="#E3E5EB" fill-opacity="1.000000" fill-rule="nonzero"/>
</svg>
