<svg width="20" height="20" viewBox="0 0 20 20" fill="none" xmlns="http://www.w3.org/2000/svg">
<path d="M10 13C11.6569 13 13 11.6569 13 10C13 8.34315 11.6569 7 10 7C8.34315 7 7 8.34315 7 10C7 11.6569 8.34315 13 10 13Z" stroke="#8A8A98" stroke-width="1.5" stroke-linecap="round" stroke-linejoin="round"/>
<path d="M13.2 6.7995V10.7995C13.2 11.436 13.4529 12.0465 13.9029 12.4966C14.353 12.9466 14.9635 13.1995 15.6 13.1995C16.2365 13.1995 16.847 12.9466 17.2971 12.4966C17.7471 12.0465 18 11.436 18 10.7995V9.9995C17.9999 8.19392 17.389 6.44148 16.2666 5.02713C15.1443 3.61277 13.5764 2.61968 11.8181 2.20934C10.0598 1.799 8.21435 1.99554 6.58188 2.767C4.94942 3.53846 3.62592 4.83947 2.82661 6.45848C2.0273 8.07749 1.79918 9.91929 2.17934 11.6844C2.5595 13.4495 3.52559 15.0341 4.92051 16.1805C6.31543 17.3269 8.05715 17.9678 9.86246 17.9988C11.6678 18.0299 13.4305 17.4493 14.864 16.3515" stroke="#8A8A98" stroke-width="1.5" stroke-linecap="round" stroke-linejoin="round"/>
</svg>
