<svg width="16.000000" height="16.000000" viewBox="0 0 16 16" fill="none" xmlns="http://www.w3.org/2000/svg" xmlns:xlink="http://www.w3.org/1999/xlink">
	<desc>
			Created with Pixso.
	</desc>
	<defs>
		<clipPath id="clip21_28297">
			<rect id="Error" width="16.000000" height="16.000000" fill="white" fill-opacity="0"/>
		</clipPath>
	</defs>
	<rect id="Error" width="16.000000" height="16.000000" fill="#FFFFFF" fill-opacity="0"/>
	<g clip-path="url(#clip21_28297)">
		<path id="Vector" d="M8 8.66C8.18 8.66 8.34 8.6 8.47 8.47C8.6 8.34 8.66 8.18 8.66 8L8.66 5.31C8.66 5.12 8.6 4.97 8.47 4.85C8.34 4.72 8.18 4.66 8 4.66C7.81 4.66 7.65 4.73 7.52 4.85C7.39 4.98 7.33 5.14 7.33 5.33L7.33 8.01C7.33 8.2 7.39 8.36 7.52 8.48C7.65 8.6 7.81 8.66 8 8.66ZM8 11.33C8.18 11.33 8.34 11.26 8.47 11.14C8.6 11.01 8.66 10.85 8.66 10.66C8.66 10.47 8.6 10.31 8.47 10.19C8.34 10.06 8.18 10 8 10C7.81 10 7.65 10.06 7.52 10.19C7.39 10.31 7.33 10.47 7.33 10.66C7.33 10.85 7.39 11.01 7.52 11.14C7.65 11.26 7.81 11.33 8 11.33ZM8 14.66C7.07 14.66 6.21 14.49 5.4 14.14C4.58 13.79 3.88 13.31 3.28 12.71C2.68 12.11 2.2 11.41 1.85 10.6C1.5 9.78 1.33 8.92 1.33 8C1.33 7.07 1.5 6.21 1.85 5.4C2.2 4.58 2.68 3.88 3.28 3.28C3.88 2.68 4.58 2.2 5.4 1.85C6.21 1.5 7.07 1.33 8 1.33C8.92 1.33 9.78 1.5 10.6 1.85C11.41 2.2 12.11 2.68 12.71 3.28C13.31 3.88 13.79 4.58 14.14 5.4C14.49 6.21 14.66 7.07 14.66 8C14.66 8.92 14.49 9.78 14.14 10.6C13.79 11.41 13.31 12.11 12.71 12.71C12.11 13.31 11.41 13.79 10.6 14.14C9.78 14.49 8.92 14.66 8 14.66ZM8 13.33C9.47 13.33 10.73 12.81 11.77 11.77C12.81 10.73 13.33 9.47 13.33 8C13.33 6.52 12.81 5.26 11.77 4.22C10.73 3.18 9.47 2.66 8 2.66C6.52 2.66 5.26 3.18 4.22 4.22C3.18 5.26 2.66 6.52 2.66 8C2.66 9.47 3.18 10.73 4.22 11.77C5.26 12.81 6.52 13.33 8 13.33Z" fill="#CD412B" fill-opacity="1.000000" fill-rule="nonzero"/>
	</g>
</svg>
