<svg width="18.000000" height="12.000000" viewBox="0 0 18 12" fill="none" xmlns="http://www.w3.org/2000/svg" xmlns:xlink="http://www.w3.org/1999/xlink">
	<desc>
			Created with Pixso.
	</desc>
	<defs>
		<clipPath id="clip21_6641">
			<rect id="Property 1=Global" rx="2.000000" width="18.000000" height="12.000000" transform="translate(-0.500000 0.000000)" fill="white" fill-opacity="0"/>
		</clipPath>
	</defs>
	<g clip-path="url(#clip21_6641)">
		<rect id="Rectangle 1016" x="-0.500000" width="18.000000" height="12.000000" fill="#0052B4" fill-opacity="1.000000"/>
		<path id="Vector" d="M8.5 1L8.73 1.76L9.5 1.76L8.88 2.23L9.11 3L8.5 2.52L7.88 3L8.11 2.23L7.5 1.76L8.26 1.76L8.5 1Z" fill="#FFDA44" fill-opacity="1.000000" fill-rule="nonzero"/>
		<path id="Vector" d="M4.69 2.19L5.38 2.54L5.93 2L5.81 2.76L6.5 3.11L5.73 3.23L5.61 4L5.26 3.31L4.5 3.43L5.04 2.88L4.69 2.19Z" fill="#FFDA44" fill-opacity="1.000000" fill-rule="nonzero"/>
		<path id="Vector" d="M3.5 6L4.26 5.76L4.26 5L4.73 5.61L5.5 5.38L5.02 6L5.5 6.61L4.73 6.38L4.26 7L4.26 6.23L3.5 6Z" fill="#FFDA44" fill-opacity="1.000000" fill-rule="nonzero"/>
		<path id="Vector" d="M4.69 9.8L5.04 9.11L4.5 8.56L5.26 8.68L5.61 8L5.73 8.76L6.5 8.88L5.81 9.23L5.93 10L5.38 9.45L4.69 9.8Z" fill="#FFDA44" fill-opacity="1.000000" fill-rule="nonzero"/>
		<path id="Vector" d="M8.5 11L8.26 10.23L7.5 10.23L8.11 9.76L7.88 9L8.5 9.47L9.11 9L8.88 9.76L9.5 10.23L8.73 10.23L8.5 11Z" fill="#FFDA44" fill-opacity="1.000000" fill-rule="nonzero"/>
		<path id="Vector" d="M12.3 9.8L11.61 9.45L11.06 10L11.18 9.23L10.5 8.88L11.26 8.76L11.38 8L11.73 8.68L12.5 8.56L11.95 9.11L12.3 9.8Z" fill="#FFDA44" fill-opacity="1.000000" fill-rule="nonzero"/>
		<path id="Vector" d="M13.5 6L12.73 6.23L12.73 7L12.26 6.38L11.5 6.61L11.97 6L11.5 5.38L12.26 5.61L12.73 5L12.73 5.76L13.5 6Z" fill="#FFDA44" fill-opacity="1.000000" fill-rule="nonzero"/>
		<path id="Vector" d="M12.3 2.19L11.95 2.88L12.5 3.43L11.73 3.31L11.38 4L11.26 3.23L10.5 3.11L11.18 2.76L11.06 2L11.61 2.54L12.3 2.19Z" fill="#FFDA44" fill-opacity="1.000000" fill-rule="nonzero"/>
	</g>
</svg>
