<svg width="19.000000" height="20.000000" viewBox="0 0 19 20" fill="none" xmlns="http://www.w3.org/2000/svg" xmlns:xlink="http://www.w3.org/1999/xlink">
	<desc>
			Created with Pixso.
	</desc>
	<defs/>
	<path id="google" d="M18.78 10.22C18.78 9.51 18.72 8.83 18.6 8.18L9.18 8.18L9.18 12.05L14.56 12.05C14.33 13.3 13.63 14.35 12.57 15.06L12.57 17.57L15.8 17.57C17.69 15.83 18.78 13.27 18.78 10.22Z" fill="#E3E5EB" fill-opacity="1.000000" fill-rule="evenodd"/>
	<path id="google" d="M9.18 20C11.88 20 14.15 19.1 15.8 17.57L12.57 15.06C11.67 15.66 10.53 16.02 9.18 16.02C6.58 16.02 4.37 14.26 3.59 11.9L0.25 11.9L0.25 14.49C1.89 17.75 5.27 20 9.18 20Z" fill="#E3E5EB" fill-opacity="1.000000" fill-rule="evenodd"/>
	<path id="google" d="M3.59 11.9C3.39 11.3 3.27 10.65 3.27 9.99C3.27 9.34 3.39 8.69 3.59 8.09L3.59 5.5L0.25 5.5C-0.43 6.85 -0.82 8.38 -0.82 9.99C-0.82 11.61 -0.43 13.14 0.25 14.49L3.59 11.9Z" fill="#E3E5EB" fill-opacity="1.000000" fill-rule="evenodd"/>
	<path id="google" d="M9.18 3.97C10.65 3.97 11.97 4.48 13 5.47L15.87 2.6C14.14 0.99 11.88 0 9.18 0C5.27 0 1.89 2.24 0.25 5.5L3.59 8.1C4.37 5.73 6.58 3.97 9.18 3.97Z" fill="#E3E5EB" fill-opacity="1.000000" fill-rule="evenodd"/>
</svg>
