<svg width="22.000000" height="22.000000" viewBox="0 0 22 22" fill="none" xmlns="http://www.w3.org/2000/svg" xmlns:xlink="http://www.w3.org/1999/xlink">
	<desc>
			Created with Pixso.
	</desc>
	<defs/>
	<rect id="filter/popular" width="22.000000" height="22.000000" fill="#FFFFFF" fill-opacity="0"/>
	<path id="Vector" d="M14.55 4C13.1 4 11.8 4.69 11 5.75C10.19 4.69 8.89 4 7.44 4C4.99 4 3 5.96 3 8.39C3 9.33 3.15 10.19 3.41 11C4.67 14.93 8.57 17.28 10.5 17.92C10.77 18.02 11.22 18.02 11.49 17.92C13.42 17.28 17.32 14.93 18.58 11C18.84 10.19 19 9.33 19 8.39C19 5.96 17 4 14.55 4Z" fill="#63A9A1" fill-opacity="1.000000" fill-rule="nonzero"/>
	<g opacity="0.000000">
		<path id="Vector" d="M22 22L0 22L0 0L22 0L22 22Z" fill="#63A9A1" fill-opacity="1.000000" fill-rule="evenodd"/>
	</g>
</svg>
