<svg width="20.000000" height="20.000000" viewBox="0 0 20 20" fill="none" xmlns="http://www.w3.org/2000/svg" xmlns:xlink="http://www.w3.org/1999/xlink">
	<desc>
			Created with Pixso.
	</desc>
	<defs/>
	<rect id="icons/qr" width="20.000000" height="20.000000" fill="#FDFDFD" fill-opacity="0"/>
	<path id="icon" d="M0.83 6.66C0.83 7.12 1.2 7.49 1.66 7.49C2.12 7.49 2.5 7.12 2.5 6.66L2.5 3.33C2.5 2.87 2.87 2.49 3.33 2.49L6.66 2.49C7.12 2.49 7.5 2.12 7.5 1.66C7.5 1.2 7.12 0.83 6.66 0.83L3.33 0.83C1.95 0.83 0.83 1.95 0.83 3.33L0.83 6.66ZM19.16 3.33C19.16 1.95 18.04 0.83 16.66 0.83L13.33 0.83C12.87 0.83 12.5 1.2 12.5 1.66C12.5 2.12 12.87 2.49 13.33 2.49L16.66 2.49C17.12 2.49 17.5 2.87 17.5 3.33L17.5 6.66C17.5 7.12 17.87 7.49 18.33 7.49C18.79 7.49 19.16 7.12 19.16 6.66L19.16 3.33ZM9.16 4.99C9.16 4.53 8.79 4.16 8.33 4.16L5 4.16C4.54 4.16 4.16 4.53 4.16 4.99L4.16 8.33C4.16 8.79 4.54 9.16 5 9.16L8.33 9.16C8.79 9.16 9.16 8.79 9.16 8.33L9.16 4.99ZM11.66 4.16C11.2 4.16 10.83 4.53 10.83 4.99C10.83 5.45 11.2 5.83 11.66 5.83L13.75 5.83C13.98 5.83 14.16 6.01 14.16 6.24L14.16 8.33C14.16 8.79 14.54 9.16 15 9.16C15.46 9.16 15.83 8.79 15.83 8.33L15.83 4.99C15.83 4.53 15.46 4.16 15 4.16L11.66 4.16ZM7.08 5.83C7.31 5.83 7.5 6.01 7.5 6.24L7.5 7.08C7.5 7.31 7.31 7.49 7.08 7.49L6.25 7.49C6.02 7.49 5.83 7.31 5.83 7.08L5.83 6.24C5.83 6.01 6.02 5.83 6.25 5.83L7.08 5.83ZM11.66 6.66C11.2 6.66 10.83 7.03 10.83 7.49L10.83 8.33C10.83 8.79 11.2 9.16 11.66 9.16C12.12 9.16 12.5 8.79 12.5 8.33L12.5 7.49C12.5 7.03 12.12 6.66 11.66 6.66ZM5 10.83C4.54 10.83 4.16 11.2 4.16 11.66L4.16 13.33C4.16 13.79 4.54 14.16 5 14.16C5.46 14.16 5.83 13.79 5.83 13.33L5.83 12.91C5.83 12.68 6.02 12.49 6.25 12.49L8.33 12.49C8.79 12.49 9.16 12.12 9.16 11.66C9.16 11.2 8.79 10.83 8.33 10.83L5 10.83ZM15.83 11.66C15.83 11.2 15.46 10.83 15 10.83L11.66 10.83C11.2 10.83 10.83 11.2 10.83 11.66L10.83 14.99C10.83 15.46 11.2 15.83 11.66 15.83L15 15.83C15.46 15.83 15.83 15.46 15.83 14.99L15.83 11.66ZM3.33 17.49C2.87 17.49 2.5 17.12 2.5 16.66L2.5 13.33C2.5 12.87 2.12 12.49 1.66 12.49C1.2 12.49 0.83 12.87 0.83 13.33L0.83 16.66C0.83 18.04 1.95 19.16 3.33 19.16L6.66 19.16C7.12 19.16 7.5 18.79 7.5 18.33C7.5 17.87 7.12 17.49 6.66 17.49L3.33 17.49ZM19.16 13.33C19.16 12.87 18.79 12.49 18.33 12.49C17.87 12.49 17.5 12.87 17.5 13.33L17.5 16.66C17.5 17.12 17.12 17.49 16.66 17.49L13.33 17.49C12.87 17.49 12.5 17.87 12.5 18.33C12.5 18.79 12.87 19.16 13.33 19.16L16.66 19.16C18.04 19.16 19.16 18.04 19.16 16.66L19.16 13.33ZM12.5 12.91C12.5 12.68 12.68 12.49 12.91 12.49L13.75 12.49C13.98 12.49 14.16 12.68 14.16 12.91L14.16 13.74C14.16 13.98 13.98 14.16 13.75 14.16L12.91 14.16C12.68 14.16 12.5 13.98 12.5 13.74L12.5 12.91ZM8.33 14.16C7.87 14.16 7.5 14.53 7.5 14.99C7.5 15.46 7.87 15.83 8.33 15.83C8.79 15.83 9.16 15.46 9.16 14.99C9.16 14.53 8.79 14.16 8.33 14.16Z" fill="#01A9E9" fill-opacity="1.000000" fill-rule="evenodd"/>
</svg>
