<svg width="30.000000" height="30.000000" viewBox="0 0 30 30" fill="none" xmlns="http://www.w3.org/2000/svg" xmlns:xlink="http://www.w3.org/1999/xlink">
	<desc>
			Created with Pixso.
	</desc>
	<defs>
		<clipPath id="clip21_17927">
			<rect id="Bold Duotone / Electronic, Devices / Keyboard" width="30.000000" height="30.000000" fill="white" fill-opacity="0"/>
		</clipPath>
	</defs>
	<g clip-path="url(#clip21_17927)">
		<g opacity="0.500000">
			<path id="Vector" d="M9.8 6L20.19 6C23.87 6 25.71 6 26.85 7.12C28 8.25 28 10.07 28 13.71L28 16.28C28 19.92 28 21.74 26.85 22.87C25.71 24 23.87 24 20.19 24L9.8 24C6.12 24 4.28 24 3.14 22.87C2 21.74 2 19.92 2 16.28L2 13.71C2 10.07 2 8.25 3.14 7.12C4.28 6 6.12 6 9.8 6Z" fill="#59B3A8" fill-opacity="1.000000" fill-rule="evenodd"/>
		</g>
		<path id="Vector" d="M8.57 11.25C8.57 11.95 7.99 12.51 7.28 12.51C6.57 12.51 6 11.95 6 11.25C6 10.56 6.57 10 7.28 10C7.99 10 8.57 10.56 8.57 11.25ZM12.42 11.25C12.42 11.95 11.85 12.51 11.14 12.51C10.43 12.51 9.85 11.95 9.85 11.25C9.85 10.56 10.43 10 11.14 10C11.85 10 12.42 10.56 12.42 11.25ZM16.28 11.25C16.28 11.95 15.71 12.51 15 12.51C14.28 12.51 13.71 11.95 13.71 11.25C13.71 10.56 14.28 10 15 10C15.71 10 16.28 10.56 16.28 11.25ZM20.14 11.25C20.14 11.95 19.56 12.51 18.85 12.51C18.14 12.51 17.57 11.95 17.57 11.25C17.57 10.56 18.14 10 18.85 10C19.56 10 20.14 10.56 20.14 11.25ZM24 11.25C24 11.95 23.42 12.51 22.71 12.51C22 12.51 21.42 11.95 21.42 11.25C21.42 10.56 22 10 22.71 10C23.42 10 24 10.56 24 11.25ZM8.57 15.02C8.57 15.72 7.99 16.28 7.28 16.28C6.57 16.28 6 15.72 6 15.02C6 14.33 6.57 13.77 7.28 13.77C7.99 13.77 8.57 14.33 8.57 15.02ZM12.42 15.02C12.42 15.72 11.85 16.28 11.14 16.28C10.43 16.28 9.85 15.72 9.85 15.02C9.85 14.33 10.43 13.77 11.14 13.77C11.85 13.77 12.42 14.33 12.42 15.02ZM16.28 15.02C16.28 15.72 15.71 16.28 15 16.28C14.28 16.28 13.71 15.72 13.71 15.02C13.71 14.33 14.28 13.77 15 13.77C15.71 13.77 16.28 14.33 16.28 15.02ZM20.14 15.02C20.14 15.72 19.56 16.28 18.85 16.28C18.14 16.28 17.57 15.72 17.57 15.02C17.57 14.33 18.14 13.77 18.85 13.77C19.56 13.77 20.14 14.33 20.14 15.02ZM24 15.02C24 15.72 23.42 16.28 22.71 16.28C22 16.28 21.42 15.72 21.42 15.02C21.42 14.33 22 13.77 22.71 13.77C23.42 13.77 24 14.33 24 15.02ZM21.42 21L8.57 21C8.03 21 7.6 20.57 7.6 20.05C7.6 19.53 8.03 19.11 8.57 19.11L21.42 19.11C21.96 19.11 22.39 19.53 22.39 20.05C22.39 20.57 21.96 21 21.42 21Z" fill="#59B3A8" fill-opacity="1.000000" fill-rule="evenodd"/>
	</g>
</svg>
