<svg width="22.000000" height="22.000000" viewBox="0 0 22 22" fill="none" xmlns="http://www.w3.org/2000/svg" xmlns:xlink="http://www.w3.org/1999/xlink">
	<desc>
			Created with Pixso.
	</desc>
	<defs>
		<clipPath id="clip405_15287">
			<rect id="_РЎР»РѕР№_1" width="22.000000" height="22.000000" fill="white" fill-opacity="0"/>
		</clipPath>
	</defs>
	<rect id="_РЎР»РѕР№_1" width="22.000000" height="22.000000" fill="#FFFFFF" fill-opacity="0"/>
	<g clip-path="url(#clip405_15287)">
		<path id="Vector" d="M1 15.57C1 11.52 1 7.47 1 3.42C1 3.4 1.02 3.38 1.02 3.36C1.18 2.55 1.82 2.01 2.7 2.01C4.66 1.99 6.62 1.99 8.58 2C9.42 2.01 10.07 2.52 10.24 3.29C10.33 3.73 10.37 4.18 10.43 4.62C10.6 5.92 10.77 7.23 10.95 8.53C11.12 9.81 11.28 11.09 11.45 12.37C11.63 13.72 11.82 15.07 11.99 16.42C12.02 16.67 11.78 16.99 11.56 16.99C8.62 17 5.67 17 2.73 16.99C2.18 16.99 1.72 16.79 1.36 16.38C1.16 16.14 1.07 15.86 1 15.57ZM6.95 10.07C7.01 10.35 7.07 10.63 7.12 10.9C7.18 11.18 7.24 11.45 7.3 11.73C7.38 12.05 7.67 12.25 7.98 12.19C8.3 12.12 8.49 11.85 8.42 11.53C8.05 9.79 7.68 8.05 7.3 6.31C7.23 5.96 7.03 5.8 6.65 5.8C6.31 5.8 5.98 5.8 5.64 5.8C5.26 5.8 5.06 5.96 4.98 6.31C4.71 7.54 4.45 8.78 4.18 10.01C4.08 10.52 3.96 11.03 3.86 11.54C3.8 11.85 3.99 12.12 4.3 12.19C4.59 12.25 4.88 12.08 4.97 11.79C4.99 11.71 5 11.63 5.02 11.54C5.13 11.05 5.23 10.56 5.33 10.07L6.95 10.07L6.95 10.07Z" fill="#595962" fill-opacity="1.000000" fill-rule="nonzero"/>
		<path id="Vector" d="M19.36 22L10 22C10.03 21.96 10.06 21.91 10.09 21.88C10.93 20.99 11.76 20.1 12.6 19.22C12.98 18.81 13.17 18.34 13.11 17.81C13.02 17 12.91 16.2 12.8 15.39C12.61 14.02 12.43 12.64 12.24 11.27C12.07 9.99 11.9 8.72 11.73 7.45C11.67 6.97 11.6 6.49 11.54 6.01C11.6 6 11.64 6 11.68 6C14.16 6 16.64 5.99 19.12 6C19.39 6.01 19.69 6.07 19.94 6.18C20.65 6.51 20.99 7.08 20.99 7.81C21 8.95 20.99 10.09 20.99 11.23C20.99 14.21 20.99 17.2 20.99 20.18C20.99 20.79 20.78 21.31 20.23 21.65C19.97 21.81 19.65 21.88 19.36 22L19.36 22ZM15.81 14.8C15.73 14.86 15.67 14.91 15.61 14.96C15.22 15.26 14.82 15.55 14.44 15.85C14.16 16.06 14.13 16.4 14.34 16.65C14.55 16.89 14.9 16.93 15.18 16.75C15.29 16.68 15.39 16.6 15.49 16.53C15.88 16.23 16.27 15.93 16.67 15.63C16.75 15.69 16.82 15.76 16.9 15.82C17.32 16.12 17.73 16.43 18.15 16.73C18.45 16.94 18.82 16.89 19.02 16.64C19.23 16.38 19.18 16.05 18.9 15.83C18.66 15.66 18.42 15.49 18.18 15.32C17.96 15.15 17.74 14.98 17.51 14.8C18.15 14.06 18.65 13.28 18.96 12.4C18.98 12.35 19.07 12.31 19.13 12.31C19.51 12.28 19.77 12.04 19.76 11.72C19.76 11.4 19.49 11.17 19.1 11.16C18.78 11.16 18.46 11.16 18.14 11.16C17.85 11.16 17.57 11.16 17.27 11.16C17.27 10.98 17.27 10.81 17.27 10.65C17.27 10.28 17.02 10.03 16.66 10.03C16.3 10.03 16.05 10.28 16.05 10.65C16.04 10.82 16.05 10.99 16.05 11.16C15.95 11.16 15.88 11.16 15.81 11.16C15.3 11.16 14.79 11.16 14.28 11.16C13.88 11.17 13.6 11.39 13.59 11.72C13.59 12.05 13.86 12.29 14.25 12.3C14.29 12.31 14.32 12.31 14.37 12.31C14.69 13.21 15.15 14.05 15.81 14.8L15.81 14.8Z" fill="#595962" fill-opacity="1.000000" fill-rule="nonzero"/>
		<path id="Vector" d="M11 19C10.13 20.01 9.29 21 8.44 22C7.23 21.39 7.06 20.23 7 19L11 19Z" fill="#595962" fill-opacity="1.000000" fill-rule="nonzero"/>
		<path id="Vector" d="M16 12L18 12C17.76 12.74 17.41 13.38 16.98 14C16.55 13.39 16.23 12.74 16 12Z" fill="#595962" fill-opacity="1.000000" fill-rule="nonzero"/>
	</g>
</svg>
