<svg width="89" height="30" viewBox="0 0 89 30" fill="none" xmlns="http://www.w3.org/2000/svg">
<path d="M9.04545 22.1922H4.05203L3.17969 18.5598L4.05203 16.8109H8.56416L9.04545 17.1472H11.2414L14.3397 13.6831L12.4747 18.1562L12.8356 19.737H11.2414L9.04545 22.1922Z" fill="white"/>
<path d="M24.36 19.7949H17.43V17.8365L15 13.1767L18.84 16.1481L24.36 17.4313V19.7949Z" fill="white"/>
<path d="M6.03169 22.7227L5.33984 23.48H11.9123L12.6308 22.7227H22.6891L23.7269 21.6623L26.7337 23.8133L26.9998 23.0862L23.7269 20.5717L11.9123 20.7838L10.3158 22.7227H6.03169Z" fill="url(#paint0_linear_418_13099)"/>
<path d="M11.0996 28V24.6233H11.9603L12.6726 23.8129H19.4396L18.757 27.5948L14.958 25.0285L11.0996 28Z" fill="white"/>
<path d="M3.68683 16.2354L2.91883 17.6675L1.61914 16.635L2.44622 15.2363H5.45914L4.80929 16.2354H3.68683Z" fill="url(#paint1_linear_418_13099)"/>
<path d="M23.97 12.0621H12L13.74 10.0362H15.36L16.26 11.0829H23.22L20.28 7.8076V6.96344H14.85L15.36 6.25435H21.72L26.88 12.0621L24.87 12.9401L23.97 12.0621Z" fill="url(#paint2_linear_418_13099)"/>
<path d="M3.66983 11.7677L1.21364 16.0465L0 15.1713L2.3406 10.86L1.93605 8.75302L4.7101 10.86H8.63999L7.88869 11.7677H3.66983Z" fill="url(#paint3_linear_418_13099)"/>
<path d="M5.77197 10.1039H4.98566L4.32031 9.4257L5.98367 4.98382L12.1532 1.99995H16.478L19.2603 2.74592H13.121L8.13092 8.64583H6.95144L5.77197 10.1039Z" fill="white"/>
<path d="M20.2185 2.94527L18.4805 5.2767H22.048L25.9205 9.63098L24.2129 4.21384L20.2185 2.94527Z" fill="white"/>
<path d="M25.0195 19.8855V13.855L27.585 12.8725L26.0155 14.6342V18.6997L29.9995 21.5117L29.2148 23.0024L25.0195 19.8855Z" fill="url(#paint4_linear_418_13099)"/>
<path d="M7.13969 9.29344L6.17969 10.4415H9.11968L14.2497 4.5324H17.6997L18.4797 3.55318H13.1997L8.24969 9.29344H7.13969Z" fill="url(#paint5_linear_418_13099)"/>
<path d="M46.836 8.232C46.748 9.024 46.476 9.72 46.02 10.32C45.564 10.912 44.964 11.372 44.22 11.7C43.484 12.028 42.636 12.192 41.676 12.192C40.628 12.192 39.712 11.996 38.928 11.604C38.144 11.212 37.532 10.664 37.092 9.96C36.66 9.256 36.444 8.436 36.444 7.5C36.444 6.564 36.66 5.744 37.092 5.04C37.532 4.336 38.144 3.788 38.928 3.396C39.712 3.004 40.628 2.808 41.676 2.808C42.636 2.808 43.484 2.972 44.22 3.3C44.964 3.628 45.564 4.092 46.02 4.692C46.476 5.284 46.748 5.976 46.836 6.768H44.34C44.26 6.384 44.104 6.06 43.872 5.796C43.64 5.524 43.336 5.316 42.96 5.172C42.592 5.028 42.164 4.956 41.676 4.956C41.116 4.956 40.632 5.06 40.224 5.268C39.816 5.468 39.504 5.76 39.288 6.144C39.072 6.52 38.964 6.972 38.964 7.5C38.964 8.028 39.072 8.484 39.288 8.868C39.504 9.244 39.816 9.536 40.224 9.744C40.632 9.944 41.116 10.044 41.676 10.044C42.164 10.044 42.592 9.976 42.96 9.84C43.336 9.704 43.64 9.5 43.872 9.228C44.104 8.956 44.26 8.624 44.34 8.232H46.836ZM50.7782 12V7.62H53.2742V12H50.7782ZM46.5542 3H49.3142L52.5782 7.152H51.4622L54.7142 3H57.4742L52.8182 8.916L51.2222 8.94L46.5542 3ZM64.7324 7.596L64.9364 7.128C65.6324 7.144 66.2044 7.252 66.6524 7.452C67.1084 7.644 67.4484 7.916 67.6724 8.268C67.8964 8.612 68.0084 9.012 68.0084 9.468C68.0084 9.956 67.8964 10.392 67.6724 10.776C67.4484 11.152 67.1124 11.452 66.6644 11.676C66.2244 11.892 65.6724 12 65.0084 12H58.3604L59.0564 7.38L58.3604 3H64.7684C65.6004 3 66.2484 3.196 66.7124 3.588C67.1764 3.972 67.4084 4.508 67.4084 5.196C67.4084 5.572 67.3204 5.932 67.1444 6.276C66.9684 6.62 66.6844 6.912 66.2924 7.152C65.9084 7.384 65.3884 7.532 64.7324 7.596ZM60.8204 11.424L59.8604 10.26H64.3364C64.6964 10.26 64.9764 10.172 65.1764 9.996C65.3764 9.82 65.4764 9.576 65.4764 9.264C65.4764 8.952 65.3684 8.704 65.1524 8.52C64.9364 8.328 64.6164 8.232 64.1924 8.232H60.4964V6.528H63.8564C64.1444 6.528 64.3844 6.444 64.5764 6.276C64.7764 6.1 64.8764 5.864 64.8764 5.568C64.8764 5.328 64.7924 5.132 64.6244 4.98C64.4564 4.82 64.2164 4.74 63.9044 4.74H59.8724L60.8204 3.576L61.4324 7.38L60.8204 11.424ZM77.1622 6.6V8.4H70.5742V6.6H77.1622ZM72.2662 7.5L71.6782 11.112L70.6702 9.984H77.5582V12H69.1942L69.8782 7.5L69.1942 3H77.4982V5.016H70.6702L71.6782 3.888L72.2662 7.5ZM80.9535 6.936H84.2295C84.6295 6.936 84.9415 6.844 85.1655 6.66C85.3895 6.476 85.5015 6.22 85.5015 5.892C85.5015 5.556 85.3895 5.3 85.1655 5.124C84.9415 4.94 84.6295 4.848 84.2295 4.848H80.6055L81.7215 3.66V12H79.2375V3H84.5775C85.2655 3 85.8655 3.124 86.3775 3.372C86.8895 3.612 87.2895 3.948 87.5775 4.38C87.8655 4.804 88.0095 5.308 88.0095 5.892C88.0095 6.46 87.8655 6.96 87.5775 7.392C87.2895 7.824 86.8895 8.16 86.3775 8.4C85.8655 8.64 85.2655 8.76 84.5775 8.76H80.9535V6.936ZM82.2975 7.788H85.0935L88.3215 12H85.4415L82.2975 7.788Z" fill="#FAFAFA"/>
<path d="M36.84 18H39.324V27H36.84V18ZM43.92 18H46.416V27H43.92V18ZM38.232 21.324H44.952V23.532H38.232V21.324ZM50.0937 25.272V23.268H56.2977V25.272H50.0937ZM54.8817 18L58.9737 27H56.3217L52.8897 19.056H53.6097L50.1657 27H47.5137L51.6057 18H54.8817ZM69.523 23.232C69.435 24.024 69.163 24.72 68.707 25.32C68.251 25.912 67.651 26.372 66.907 26.7C66.171 27.028 65.323 27.192 64.363 27.192C63.315 27.192 62.399 26.996 61.615 26.604C60.831 26.212 60.219 25.664 59.779 24.96C59.347 24.256 59.131 23.436 59.131 22.5C59.131 21.564 59.347 20.744 59.779 20.04C60.219 19.336 60.831 18.788 61.615 18.396C62.399 18.004 63.315 17.808 64.363 17.808C65.323 17.808 66.171 17.972 66.907 18.3C67.651 18.628 68.251 19.092 68.707 19.692C69.163 20.284 69.435 20.976 69.523 21.768H67.027C66.947 21.384 66.791 21.06 66.559 20.796C66.327 20.524 66.023 20.316 65.647 20.172C65.279 20.028 64.851 19.956 64.363 19.956C63.803 19.956 63.319 20.06 62.911 20.268C62.503 20.468 62.191 20.76 61.975 21.144C61.759 21.52 61.651 21.972 61.651 22.5C61.651 23.028 61.759 23.484 61.975 23.868C62.191 24.244 62.503 24.536 62.911 24.744C63.319 24.944 63.803 25.044 64.363 25.044C64.851 25.044 65.279 24.976 65.647 24.84C66.023 24.704 66.327 24.5 66.559 24.228C66.791 23.956 66.947 23.624 67.027 23.232H69.523ZM70.9702 27V18H73.4422V25.02L72.7822 24.504L77.8822 18H80.5102L73.2142 27H70.9702ZM75.2662 22.704L77.0902 21.192L80.6302 27H77.8102L75.2662 22.704Z" fill="url(#paint6_linear_418_13099)"/>
<defs>
<linearGradient id="paint0_linear_418_13099" x1="16.1698" y1="20.5717" x2="16.1698" y2="23.8133" gradientUnits="userSpaceOnUse">
<stop stop-color="#E1C58B"/>
<stop offset="1" stop-color="#B9CEAB"/>
</linearGradient>
<linearGradient id="paint1_linear_418_13099" x1="3.53914" y1="15.2363" x2="3.53914" y2="17.6675" gradientUnits="userSpaceOnUse">
<stop stop-color="#8ADAD1"/>
<stop offset="1" stop-color="#BCCEA9"/>
</linearGradient>
<linearGradient id="paint2_linear_418_13099" x1="19.44" y1="6.25435" x2="19.44" y2="12.9401" gradientUnits="userSpaceOnUse">
<stop stop-color="#8ADAD1"/>
<stop offset="1" stop-color="#BCCEA9"/>
</linearGradient>
<linearGradient id="paint3_linear_418_13099" x1="4.32" y1="8.75302" x2="4.32" y2="16.0465" gradientUnits="userSpaceOnUse">
<stop stop-color="#8ADAD1"/>
<stop offset="1" stop-color="#BCCEA9"/>
</linearGradient>
<linearGradient id="paint4_linear_418_13099" x1="27.5095" y1="12.8725" x2="27.5095" y2="23.0024" gradientUnits="userSpaceOnUse">
<stop stop-color="#E1C58B"/>
<stop offset="1" stop-color="#B9CEAB"/>
</linearGradient>
<linearGradient id="paint5_linear_418_13099" x1="12.3297" y1="3.55318" x2="12.3297" y2="10.4415" gradientUnits="userSpaceOnUse">
<stop stop-color="#8ADAD1"/>
<stop offset="1" stop-color="#BCCEA9"/>
</linearGradient>
<linearGradient id="paint6_linear_418_13099" x1="62.5" y1="0" x2="62.5" y2="30" gradientUnits="userSpaceOnUse">
<stop stop-color="#8ADAD1"/>
<stop offset="1" stop-color="#BCCEA9"/>
</linearGradient>
</defs>
</svg>
