<svg width="24.000000" height="24.000000" viewBox="0 0 24 24" fill="none" xmlns="http://www.w3.org/2000/svg" xmlns:xlink="http://www.w3.org/1999/xlink">
	<desc>
			Created with Pixso.
	</desc>
	<defs>
		<clipPath id="clip405_9117">
			<rect id="Bold / Like / Medal Star" rx="5.000000" width="24.000000" height="24.000000" fill="white" fill-opacity="0"/>
		</clipPath>
		<linearGradient x1="6.000000" y1="14.000000" x2="18.000000" y2="14.000000" id="paint_linear_405_9118_0" gradientUnits="userSpaceOnUse">
			<stop stop-color="#FFEEEE"/>
			<stop offset="1.000000" stop-color="#DDEFBB"/>
		</linearGradient>
		<linearGradient x1="8.000000" y1="6.500000" x2="16.000000" y2="6.500000" id="paint_linear_405_9119_0" gradientUnits="userSpaceOnUse">
			<stop stop-color="#FFEEEE"/>
			<stop offset="1.000000" stop-color="#DDEFBB"/>
		</linearGradient>
	</defs>
	<g clip-path="url(#clip405_9117)">
		<path id="Vector" d="M13.1 8.27C12.41 7.9 11.58 7.9 10.89 8.27L7.2 10.21C6.46 10.6 6 11.35 6 12.16L6 15.83C6 16.64 6.46 17.39 7.2 17.78L10.89 19.72C11.58 20.09 12.41 20.09 13.1 19.72L16.79 17.78C17.53 17.39 18 16.64 18 15.83L18 12.16C18 11.35 17.53 10.6 16.79 10.21L13.1 8.27ZM12 11.77C11.78 11.77 11.63 12.02 11.34 12.53L11.26 12.66C11.18 12.8 11.14 12.87 11.07 12.92C11.01 12.97 10.93 12.99 10.77 13.02L10.62 13.05C10.05 13.18 9.77 13.24 9.7 13.45C9.63 13.66 9.83 13.88 10.21 14.31L10.31 14.43C10.42 14.55 10.48 14.61 10.5 14.69C10.53 14.77 10.52 14.85 10.5 15.01L10.49 15.17C10.43 15.75 10.4 16.04 10.58 16.17C10.75 16.3 11.02 16.18 11.55 15.94L11.69 15.88C11.84 15.82 11.92 15.78 12 15.78C12.08 15.78 12.15 15.82 12.3 15.88L12.44 15.94C12.97 16.18 13.24 16.3 13.41 16.17C13.59 16.04 13.56 15.75 13.5 15.17L13.49 15.01C13.47 14.85 13.46 14.77 13.49 14.69C13.51 14.61 13.57 14.55 13.68 14.43L13.78 14.31C14.17 13.88 14.36 13.66 14.29 13.45C14.22 13.24 13.94 13.18 13.37 13.05L13.22 13.02C13.06 12.99 12.98 12.97 12.92 12.92C12.85 12.87 12.81 12.8 12.73 12.66L12.65 12.53C12.36 12.02 12.21 11.77 12 11.77Z" fill="url(#paint_linear_405_9118_0)" fill-opacity="1.000000" fill-rule="evenodd"/>
		<path id="Vector" d="M11.2 5L12.8 5C14.3 5 15.06 5 15.53 5.43C16 5.87 16 6.57 16 7.98L16 8L13.72 6.84C12.64 6.29 11.35 6.29 10.27 6.84L8 7.99L8 7.98C8 6.57 8 5.87 8.46 5.43C8.93 5 9.69 5 11.2 5Z" fill="url(#paint_linear_405_9119_0)" fill-opacity="1.000000" fill-rule="nonzero"/>
	</g>
</svg>
