<svg width="24.000000" height="24.000000" viewBox="0 0 24 24" fill="none" xmlns="http://www.w3.org/2000/svg" xmlns:xlink="http://www.w3.org/1999/xlink">
	<desc>
			Created with Pixso.
	</desc>
	<defs/>
	<path id="Vector" d="M19.33 14.49L18.33 12.83C18.13 12.46 17.93 11.76 17.93 11.35L17.93 8.82C17.93 6.47 16.56 4.44 14.57 3.49C14.05 2.57 13.08 2 11.99 2C10.9 2 9.91 2.59 9.4 3.52C7.44 4.49 6.09 6.5 6.09 8.82L6.09 11.35C6.09 11.76 5.91 12.46 5.69 12.82L4.68 14.49C4.28 15.16 4.19 15.9 4.44 16.58C4.68 17.25 5.25 17.77 6 18.02C7.93 18.68 9.98 19 12.01 19C14.06 19 16.09 18.68 18.03 18.03C18.74 17.79 19.27 17.27 19.53 16.58C19.8 15.89 19.73 15.13 19.33 14.49Z" fill="#8A8A98" fill-opacity="1.000000" fill-rule="nonzero"/>
	<path id="Vector" d="M14.83 20.01C14.41 21.17 13.29 22 12 22C11.2 22 10.42 21.68 9.87 21.11C9.56 20.81 9.32 20.41 9.17 20C9.31 20.02 9.43 20.03 9.58 20.04C9.81 20.08 10.04 20.11 10.28 20.12C10.85 20.18 11.43 20.2 12.01 20.2C12.58 20.2 13.16 20.18 13.71 20.12C13.92 20.11 14.14 20.1 14.33 20.07C14.5 20.04 14.66 20.03 14.83 20.01Z" fill="#8A8A98" fill-opacity="1.000000" fill-rule="nonzero"/>
	<g opacity="0.000000"/>
</svg>
