<svg width="24.000000" height="24.000000" viewBox="0 0 24 24" fill="none" xmlns="http://www.w3.org/2000/svg" xmlns:xlink="http://www.w3.org/1999/xlink">
	<desc>
			Created with Pixso.
	</desc>
	<defs/>
	<rect id="vuesax/bold/notification" width="24.000000" height="24.000000" fill="#FFFFFF" fill-opacity="0"/>
	<path id="Vector" d="M19.33 14.49L18.33 12.83C18.13 12.46 17.93 11.75 17.93 11.35L17.93 8.81C17.93 6.47 16.56 4.43 14.57 3.49C14.05 2.56 13.08 2 11.99 2C10.9 2 9.91 2.58 9.4 3.52C7.44 4.49 6.09 6.5 6.09 8.81L6.09 11.35C6.09 11.75 5.91 12.46 5.69 12.81L4.68 14.49C4.28 15.16 4.19 15.89 4.44 16.58C4.68 17.25 5.25 17.77 6 18.02C7.93 18.68 9.98 19 12.01 19C14.06 19 16.09 18.68 18.03 18.02C18.74 17.79 19.27 17.27 19.53 16.58C19.8 15.89 19.73 15.12 19.33 14.49Z" fill="#0E1012" fill-opacity="1.000000" fill-rule="nonzero"/>
	<path id="Vector" d="M14.83 20C14.41 21.16 13.29 22 12 22C11.2 22 10.42 21.68 9.87 21.1C9.56 20.81 9.32 20.41 9.17 20C9.31 20.02 9.43 20.02 9.58 20.04C9.81 20.08 10.04 20.1 10.28 20.12C10.85 20.18 11.43 20.2 12.01 20.2C12.58 20.2 13.16 20.18 13.71 20.12C13.92 20.1 14.14 20.1 14.33 20.06C14.5 20.04 14.66 20.02 14.83 20Z" fill="#0E1012" fill-opacity="1.000000" fill-rule="nonzero"/>
	<g opacity="0.000000"/>
</svg>
