<svg width="42" height="42" viewBox="0 0 42 42" fill="none" xmlns="http://www.w3.org/2000/svg">
<rect width="42" height="42" rx="6" fill="#80BB01" fill-opacity="0.03"/>
<g filter="url(#filter0_bii_1865_36756)">
<path d="M16.9308 16.562V15.1447C16.9308 14.8264 17.1778 14.5543 17.4961 14.5543C21.6325 14.4187 24.6414 17.4237 25.7184 18.6857C25.9912 19.0053 25.9944 19.4579 25.7347 19.7883C24.6594 21.1562 21.659 24.5687 18.4855 24.5687C18.1963 24.5687 17.9106 24.5432 17.6304 24.4922C17.2112 24.4159 16.9426 24.0259 16.9426 23.5998V19.4224C16.9426 18.8204 17.483 18.33 18.0441 18.5481C18.9214 18.8892 19.3961 19.5142 19.9981 20.5355C20.3187 21.0791 21.0491 21.2065 21.5245 20.7915L22.6331 19.8236C23.0248 19.4817 23.0833 18.9004 22.7092 18.5393C21.8787 17.7379 20.2413 16.5131 17.9908 16.5131C17.6375 16.5008 17.2841 16.5253 16.9308 16.562ZM17.9308 10C17.3785 10 16.9308 10.4477 16.9308 11V12.3962C16.9308 12.703 17.19 12.9459 17.4961 12.926C23.4049 12.7169 27.6473 16.9436 29.0266 18.5307C29.3221 18.8707 29.3167 19.3619 29.019 19.7001C27.5599 21.3577 23.0569 26.0011 18.403 26.0011C18.2641 26.0011 18.1262 25.9973 17.9889 25.9898C17.44 25.96 16.9426 26.3709 16.9426 26.9207C16.9426 27.3672 17.2754 27.75 17.7212 27.7755C17.8668 27.7838 18.012 27.7885 18.1557 27.7885C23.1239 27.7885 26.7974 25.3029 30.2969 22.253C30.6717 21.9263 31.2403 21.9026 31.6667 22.1582C32.2781 22.5247 33.1007 22.9749 33.7319 23.3616C34.2192 23.6601 34.2265 24.2841 33.7619 24.617C29.9208 27.3696 22.5578 29.4903 18.2499 29.4903C18.1908 29.4903 18.1321 29.4898 18.0737 29.489C17.476 29.4802 16.9544 29.9412 16.9544 30.5389V31C16.9544 31.5523 17.4021 32 17.9544 32H36C36.5523 32 37 31.5523 37 31V11C37 10.4477 36.5523 10 36 10H17.9308ZM16.397 24.0836C16.7074 24.2405 16.9308 24.5443 16.9308 24.8922C16.9308 25.4051 16.4618 25.7948 15.975 25.6332C12.7067 24.5486 11.2973 21.4204 10.86 20.196C10.7494 19.8863 10.8286 19.5493 11.068 19.3238C11.8696 18.5688 13.9449 16.9006 16.9308 16.562V18.2642C16.9308 18.2707 16.9255 18.276 16.919 18.276C15.4504 18.0907 14.2082 19.0694 13.629 19.6303C13.3986 19.8535 13.3288 20.1845 13.443 20.4842C13.7766 21.3602 14.6565 23.2038 16.397 24.0836ZM8.42313 19.9099C8.32145 19.6346 8.36526 19.3361 8.54615 19.105C9.34343 18.0864 11.8941 15.2806 16.2038 14.6614C16.6185 14.6018 16.9426 14.2559 16.9426 13.837C16.9426 13.3665 16.5393 12.9947 16.0744 13.0668C11.0963 13.8387 6.79087 17.4695 5.43947 18.7136C5.16331 18.9678 5.07406 19.3532 5.21666 19.7004C6.02204 21.6614 9.15537 28.0979 15.9844 29.2886C16.4877 29.3764 16.9308 28.9743 16.9308 28.4634C16.9308 28.0285 16.6048 27.6656 16.1798 27.573C11.2031 26.4888 8.98512 21.4313 8.42313 19.9099Z" fill="#80BB01" fill-opacity="0.6"/>
</g>
<defs>
<filter id="filter0_bii_1865_36756" x="-80.8506" y="-76" width="203.851" height="194" filterUnits="userSpaceOnUse" color-interpolation-filters="sRGB">
<feFlood flood-opacity="0" result="BackgroundImageFix"/>
<feGaussianBlur in="BackgroundImageFix" stdDeviation="43"/>
<feComposite in2="SourceAlpha" operator="in" result="effect1_backgroundBlur_1865_36756"/>
<feBlend mode="normal" in="SourceGraphic" in2="effect1_backgroundBlur_1865_36756" result="shape"/>
<feColorMatrix in="SourceAlpha" type="matrix" values="0 0 0 0 0 0 0 0 0 0 0 0 0 0 0 0 0 0 127 0" result="hardAlpha"/>
<feOffset dy="4"/>
<feGaussianBlur stdDeviation="2"/>
<feComposite in2="hardAlpha" operator="arithmetic" k2="-1" k3="1"/>
<feColorMatrix type="matrix" values="0 0 0 0 1 0 0 0 0 1 0 0 0 0 1 0 0 0 0.15 0"/>
<feBlend mode="normal" in2="shape" result="effect2_innerShadow_1865_36756"/>
<feColorMatrix in="SourceAlpha" type="matrix" values="0 0 0 0 0 0 0 0 0 0 0 0 0 0 0 0 0 0 127 0" result="hardAlpha"/>
<feOffset/>
<feGaussianBlur stdDeviation="34"/>
<feComposite in2="hardAlpha" operator="arithmetic" k2="-1" k3="1"/>
<feColorMatrix type="matrix" values="0 0 0 0 1 0 0 0 0 1 0 0 0 0 1 0 0 0 0.05 0"/>
<feBlend mode="normal" in2="effect2_innerShadow_1865_36756" result="effect3_innerShadow_1865_36756"/>
</filter>
</defs>
</svg>
