<svg width="24.000000" height="24.000000" viewBox="0 0 24 24" fill="none" xmlns="http://www.w3.org/2000/svg" xmlns:xlink="http://www.w3.org/1999/xlink">
	<desc>
			Created with Pixso.
	</desc>
	<defs/>
	<rect id="vuesax/bulk/coin" width="24.000000" height="24.000000" fill="#FFFFFF" fill-opacity="0"/>
	<path id="Vector" d="M2 10.71C2 8.02 2 6.67 2.84 5.83C3.69 5 5.05 5 7.78 5L12.6 5C15.32 5 16.69 5 17.53 5.83C18.38 6.67 18.38 8.02 18.38 10.71C18.38 13.4 18.38 14.75 17.53 15.59C16.69 16.42 15.32 16.42 12.6 16.42L7.78 16.42C5.05 16.42 3.69 16.42 2.84 15.59C2 14.75 2 13.4 2 10.71ZM20.94 8.18C21.52 8.76 21.77 9.48 21.88 10.34C22 11.16 22 12.21 22 13.51L22 13.62C22 14.92 22 15.97 21.88 16.8C21.77 17.65 21.52 18.38 20.94 18.95C20.36 19.52 19.63 19.77 18.76 19.88C17.92 20 16.86 20 15.54 20L10.62 20C9.3 20 8.24 20 7.4 19.88C6.53 19.77 5.8 19.52 5.22 18.95C4.87 18.6 4.64 18.2 4.49 17.74C5.36 17.85 6.44 17.85 7.68 17.85L12.69 17.85C13.97 17.85 15.08 17.85 15.96 17.73C16.91 17.61 17.82 17.33 18.56 16.6C19.29 15.87 19.58 14.97 19.71 14.03C19.83 13.16 19.83 12.07 19.83 10.8L19.83 10.62C19.83 9.38 19.83 8.32 19.72 7.46C20.18 7.61 20.58 7.84 20.94 8.18ZM10.19 7.61C8.46 7.61 7.06 9 7.06 10.71C7.06 12.42 8.46 13.8 10.19 13.8C11.92 13.8 13.32 12.42 13.32 10.71C13.32 9 11.92 7.61 10.19 7.61ZM4.89 13.33C4.49 13.33 4.16 13.01 4.16 12.61L4.16 8.8C4.16 8.41 4.49 8.09 4.89 8.09C5.29 8.09 5.61 8.41 5.61 8.8L5.61 12.61C5.61 13.01 5.29 13.33 4.89 13.33ZM14.77 12.61C14.77 13.01 15.09 13.33 15.49 13.33C15.89 13.33 16.21 13.01 16.21 12.61L16.21 8.8C16.21 8.41 15.89 8.09 15.49 8.09C15.09 8.09 14.77 8.41 14.77 8.8L14.77 12.61ZM10.19 9.04C9.26 9.04 8.5 9.79 8.5 10.71C8.5 11.63 9.26 12.38 10.19 12.38C11.12 12.38 11.87 11.63 11.87 10.71C11.87 9.79 11.12 9.04 10.19 9.04Z" fill="#6FB549" fill-opacity="1.000000" fill-rule="evenodd"/>
</svg>
