<svg width="24.000000" height="24.000000" viewBox="0 0 24 24" fill="none" xmlns="http://www.w3.org/2000/svg" xmlns:xlink="http://www.w3.org/1999/xlink">
	<desc>
			Created with Pixso.
	</desc>
	<defs>
		<clipPath id="clip405_9026">
			<rect id="Bold / Food, Kitchen / Rolling Pin" rx="3.000000" width="24.000000" height="24.000000" fill="white" fill-opacity="0"/>
		</clipPath>
		<linearGradient x1="6.000000" y1="12.000000" x2="18.000000" y2="12.000000" id="paint_linear_405_9027_0" gradientUnits="userSpaceOnUse">
			<stop stop-color="#FFEEEE"/>
			<stop offset="1.000000" stop-color="#DDEFBB"/>
		</linearGradient>
		<linearGradient x1="4.000000" y1="12.000000" x2="20.000002" y2="12.000000" id="paint_linear_405_9028_0" gradientUnits="userSpaceOnUse">
			<stop stop-color="#FFEEEE"/>
			<stop offset="1.000000" stop-color="#DDEFBB"/>
		</linearGradient>
	</defs>
	<g clip-path="url(#clip405_9026)">
		<path id="Vector" d="M12.96 16.18L16.18 12.96C17.39 11.75 18 11.14 18 10.39C18 9.88 17.72 9.44 17.18 8.84C16.91 8.55 16.58 8.21 16.18 7.81C15.78 7.41 15.44 7.08 15.15 6.81C14.55 6.27 14.11 6 13.6 6C12.85 6 12.24 6.6 11.03 7.81L7.81 11.03C6.6 12.24 6 12.85 6 13.6C6 14.11 6.27 14.55 6.81 15.15C7.08 15.44 7.41 15.78 7.81 16.18C8.21 16.58 8.55 16.91 8.84 17.18C9.44 17.72 9.88 18 10.39 18C11.14 18 11.75 17.39 12.96 16.18Z" fill="url(#paint_linear_405_9027_0)" fill-opacity="1.000000" fill-rule="nonzero"/>
		<path id="Vector" d="M19.4 4.59C19.32 4.51 19.28 4.47 19.25 4.44C18.5 3.77 17.34 3.87 16.71 4.65C16.68 4.69 16.65 4.73 16.59 4.82L15.72 6.04C15.75 6.07 15.79 6.1 15.82 6.13C16.13 6.41 16.47 6.75 16.84 7.12L16.87 7.15C17.24 7.52 17.58 7.86 17.85 8.17C17.89 8.2 17.92 8.24 17.95 8.27L19.17 7.4C19.26 7.34 19.3 7.31 19.34 7.28C20.12 6.65 20.22 5.49 19.55 4.74C19.52 4.71 19.48 4.67 19.4 4.59ZM6.13 15.82C6.1 15.79 6.07 15.75 6.04 15.72L4.82 16.59C4.73 16.65 4.69 16.68 4.65 16.71C3.87 17.34 3.77 18.5 4.44 19.25C4.47 19.28 4.51 19.32 4.59 19.4C4.67 19.48 4.71 19.52 4.74 19.55C5.49 20.22 6.65 20.12 7.28 19.34C7.31 19.3 7.34 19.26 7.4 19.17L8.27 17.95C8.24 17.92 8.2 17.89 8.17 17.85C7.86 17.58 7.52 17.24 7.15 16.87L7.12 16.84C6.75 16.47 6.41 16.13 6.13 15.82Z" fill="url(#paint_linear_405_9028_0)" fill-opacity="1.000000" fill-rule="evenodd"/>
	</g>
</svg>
