<svg width="18" height="18" viewBox="0 0 18 18" fill="none" xmlns="http://www.w3.org/2000/svg">
<path fill-rule="evenodd" clip-rule="evenodd" d="M18 9C18 13.9706 13.9706 18 9 18C4.02944 18 0 13.9706 0 9C0 4.02944 4.02944 0 9 0C13.9706 0 18 4.02944 18 9ZM10.3393 4.00132C10.6993 4.0978 10.913 4.46793 10.8166 4.82802L8.48718 13.5214C8.39069 13.8814 8.02057 14.0951 7.66048 13.9986C7.30039 13.9022 7.08669 13.532 7.18318 13.1719L9.51255 4.47861C9.60904 4.11852 9.97916 3.90483 10.3393 4.00132ZM11.6727 5.82271C11.9363 5.5591 12.3637 5.5591 12.6273 5.82271L12.8148 6.01021C13.3866 6.58197 13.8634 7.05877 14.1911 7.48817C14.5369 7.94141 14.7794 8.42028 14.7794 9C14.7794 9.57972 14.5369 10.0586 14.1911 10.5118C13.8634 10.9412 13.3866 11.418 12.8148 11.9898L12.6273 12.1773C12.3637 12.4409 11.9363 12.4409 11.6727 12.1773C11.4091 11.9137 11.4091 11.4863 11.6727 11.2227L11.8271 11.0683C12.4406 10.4548 12.8517 10.0417 13.1178 9.69295C13.372 9.35979 13.4294 9.16587 13.4294 9C13.4294 8.83414 13.372 8.64021 13.1178 8.30706C12.8517 7.95833 12.4406 7.54521 11.8271 6.93171L11.6727 6.7773C11.4091 6.5137 11.4091 6.08631 11.6727 5.82271ZM5.37287 5.82271C5.63647 5.5591 6.06386 5.5591 6.32746 5.82271C6.59107 6.08631 6.59107 6.5137 6.32746 6.7773L6.17305 6.93171C5.55956 7.54521 5.14847 7.95833 4.88239 8.30706C4.6282 8.64021 4.57075 8.83414 4.57075 9C4.57075 9.16587 4.6282 9.35979 4.88239 9.69295C5.14847 10.0417 5.55956 10.4548 6.17305 11.0683L6.32746 11.2227C6.59107 11.4863 6.59107 11.9137 6.32746 12.1773C6.06386 12.4409 5.63647 12.4409 5.37287 12.1773L5.18536 11.9898C4.61355 11.418 4.13674 10.9412 3.80911 10.5118C3.4633 10.0586 3.22075 9.57972 3.22075 9C3.22075 8.42028 3.4633 7.94141 3.80911 7.48817C4.13674 7.05877 4.61356 6.58198 5.18536 6.01021L5.37287 5.82271Z" fill="#8ADAD1"/>
</svg>
