<svg width="6" height="10" viewBox="0 0 6 10" fill="none" xmlns="http://www.w3.org/2000/svg">
<path d="M2.19194 6.54545V6.49432C2.19762 5.9517 2.25444 5.51989 2.36239 5.19886C2.47035 4.87784 2.62376 4.6179 2.82262 4.41903C3.02148 4.22017 3.26012 4.03693 3.53853 3.86932C3.70614 3.76705 3.85671 3.64631 3.99023 3.5071C4.12376 3.36506 4.22887 3.2017 4.30558 3.01705C4.38512 2.83239 4.42489 2.62784 4.42489 2.40341C4.42489 2.125 4.35955 1.88352 4.22887 1.67898C4.09819 1.47443 3.92347 1.31676 3.70472 1.20597C3.48597 1.09517 3.24308 1.03977 2.97603 1.03977C2.74308 1.03977 2.51864 1.08807 2.30273 1.18466C2.08683 1.28125 1.90643 1.43324 1.76154 1.64062C1.61665 1.84801 1.53285 2.11932 1.51012 2.45455H0.436257C0.458984 1.97159 0.583984 1.55824 0.811257 1.21449C1.04137 0.870739 1.34393 0.607954 1.71893 0.426136C2.09677 0.244318 2.5158 0.153409 2.97603 0.153409C3.47603 0.153409 3.91069 0.252841 4.28001 0.451704C4.65217 0.650568 4.9391 0.923295 5.1408 1.26989C5.34535 1.61648 5.44762 2.01136 5.44762 2.45455C5.44762 2.76705 5.39933 3.04972 5.30273 3.30256C5.20898 3.5554 5.07262 3.78125 4.89364 3.98011C4.71751 4.17898 4.50444 4.35511 4.25444 4.50852C4.00444 4.66477 3.80415 4.82955 3.65359 5.00284C3.50302 5.1733 3.39364 5.37642 3.32546 5.61222C3.25728 5.84801 3.22035 6.14205 3.21467 6.49432V6.54545H2.19194ZM2.73739 9.06818C2.52717 9.06818 2.34677 8.9929 2.1962 8.84233C2.04563 8.69176 1.97035 8.51136 1.97035 8.30114C1.97035 8.09091 2.04563 7.91051 2.1962 7.75994C2.34677 7.60937 2.52717 7.53409 2.73739 7.53409C2.94762 7.53409 3.12802 7.60937 3.27859 7.75994C3.42915 7.91051 3.50444 8.09091 3.50444 8.30114C3.50444 8.44034 3.46893 8.56818 3.3979 8.68466C3.32972 8.80114 3.23739 8.89489 3.12092 8.96591C3.00728 9.03409 2.87944 9.06818 2.73739 9.06818Z" fill="#E1C58B"/>
</svg>
