<svg width="14" height="8" viewBox="0 0 14 8" fill="none" xmlns="http://www.w3.org/2000/svg">
<path fill-rule="evenodd" clip-rule="evenodd" d="M8.25875 0.15806L2.94491 6.77188L0.738984 4.06838L0.680868 4.00884C0.516736 3.86909 0.285464 3.88174 0.133077 4.05098C-0.0383593 4.24138 -0.0450378 4.55786 0.11816 4.75787L2.6369 7.84474L2.69745 7.90636C2.86857 8.05 3.11028 8.02828 3.26 7.84194L8.88411 0.841943L8.93176 0.770862C9.04201 0.571733 9.01802 0.303072 8.86452 0.135206C8.69183 -0.0536431 8.42062 -0.0434113 8.25875 0.15806ZM13.0758 0.159777L6.14251 7.15977L6.08358 7.23111C5.94737 7.43085 5.97857 7.69937 6.17043 7.86639C6.38627 8.0543 6.72373 8.04258 6.92416 7.84022L13.8575 0.840227L13.9164 0.768886C14.0526 0.569155 14.0214 0.300629 13.8296 0.133605C13.6137 -0.054296 13.2763 -0.0425787 13.0758 0.159777Z" fill="#595962"/>
</svg>
