<svg width="18.000000" height="18.000000" viewBox="0 0 18 18" fill="none" xmlns="http://www.w3.org/2000/svg" xmlns:xlink="http://www.w3.org/1999/xlink">
	<desc>
			Created with Pixso.
	</desc>
	<defs/>
	<path id="Vector" d="M18 9C18 13.97 13.97 18 9 18C4.02 18 0 13.97 0 9C0 4.02 4.02 0 9 0C13.97 0 18 4.02 18 9ZM10.33 4C10.69 4.09 10.91 4.46 10.81 4.82L8.48 13.52C8.39 13.88 8.02 14.09 7.66 13.99C7.3 13.9 7.08 13.53 7.18 13.17L9.51 4.47C9.6 4.11 9.97 3.9 10.33 4ZM11.67 5.82C11.93 5.55 12.36 5.55 12.62 5.82L12.81 6.01C13.38 6.58 13.86 7.05 14.19 7.48C14.53 7.94 14.77 8.42 14.77 9C14.77 9.57 14.53 10.05 14.19 10.51C13.86 10.94 13.38 11.41 12.81 11.98L12.62 12.17C12.36 12.44 11.93 12.44 11.67 12.17C11.4 11.91 11.4 11.48 11.67 11.22L11.82 11.06C12.44 10.45 12.85 10.04 13.11 9.69C13.37 9.35 13.42 9.16 13.42 9C13.42 8.83 13.37 8.64 13.11 8.3C12.85 7.95 12.44 7.54 11.82 6.93L11.67 6.77C11.4 6.51 11.4 6.08 11.67 5.82ZM5.37 5.82C5.63 5.55 6.06 5.55 6.32 5.82C6.59 6.08 6.59 6.51 6.32 6.77L6.17 6.93C5.55 7.54 5.14 7.95 4.88 8.3C4.62 8.64 4.57 8.83 4.57 9C4.57 9.16 4.62 9.35 4.88 9.69C5.14 10.04 5.55 10.45 6.17 11.06L6.32 11.22C6.59 11.48 6.59 11.91 6.32 12.17C6.06 12.44 5.63 12.44 5.37 12.17L5.18 11.98C4.61 11.41 4.13 10.94 3.8 10.51C3.46 10.05 3.22 9.57 3.22 9C3.22 8.42 3.46 7.94 3.8 7.48C4.13 7.05 4.61 6.58 5.18 6.01L5.37 5.82Z" fill="#8ADAD1" fill-opacity="1.000000" fill-rule="evenodd"/>
</svg>
