<svg width="20.000000" height="20.000000" viewBox="0 0 20 20" fill="none" xmlns="http://www.w3.org/2000/svg" xmlns:xlink="http://www.w3.org/1999/xlink">
	<desc>
			Created with Pixso.
	</desc>
	<defs>
		<clipPath id="clip21_13920">
			<rect id="Icons/Header/Burger" width="20.000000" height="20.000000" fill="white" fill-opacity="0"/>
		</clipPath>
	</defs>
	<g clip-path="url(#clip21_13920)">
		<path id="Vector" d="M4.14 8.07C2.49 7.4 1.66 7.07 1.66 6.66C1.66 6.25 2.49 5.92 4.14 5.26L6.48 4.32C8.14 3.66 8.97 3.33 10 3.33C11.02 3.33 11.85 3.66 13.5 4.32L15.84 5.26C17.5 5.92 18.33 6.25 18.33 6.66C18.33 7.07 17.5 7.4 15.84 8.07L13.5 9C11.85 9.66 11.02 9.99 10 9.99C8.97 9.99 8.14 9.66 6.48 9L4.14 8.07Z" fill="#8A8A98" fill-opacity="1.000000" fill-rule="evenodd"/>
		<path id="Vector" d="M1.66 6.66C1.66 7.07 2.49 7.4 4.14 8.07L6.48 9C8.14 9.66 8.97 9.99 10 9.99C11.02 9.99 11.85 9.66 13.5 9L15.84 8.07C17.5 7.4 18.33 7.07 18.33 6.66C18.33 6.25 17.5 5.92 15.84 5.26L13.5 4.32C11.85 3.66 11.02 3.33 10 3.33C8.97 3.33 8.14 3.66 6.48 4.32L4.14 5.26C2.49 5.92 1.66 6.25 1.66 6.66Z" fill="#595962" fill-opacity="1.000000" fill-rule="evenodd"/>
		<path id="Vector" d="M15.84 11.4L13.5 12.34C11.85 13 11.02 13.33 10 13.33C8.97 13.33 8.14 13 6.48 12.34L4.14 11.4C2.49 10.74 1.66 10.41 1.66 9.99C1.66 9.62 2.33 9.32 3.68 8.78L6.3 9.82C7.84 10.44 8.8 10.83 10 10.83C11.18 10.83 12.15 10.44 13.69 9.82L16.31 8.78C17.66 9.32 18.33 9.62 18.33 9.99C18.33 10.41 17.5 10.74 15.84 11.4Z" fill="#595962" fill-opacity="1.000000" fill-rule="nonzero"/>
		<path id="Vector" d="M15.84 14.73L13.5 15.67C11.85 16.33 11.02 16.66 10 16.66C8.97 16.66 8.14 16.33 6.48 15.67L4.14 14.73C2.49 14.07 1.66 13.74 1.66 13.33C1.66 12.96 2.33 12.65 3.68 12.11L6.3 13.16C7.84 13.77 8.8 14.16 10 14.16C11.18 14.16 12.15 13.77 13.69 13.16L16.31 12.11C17.66 12.65 18.33 12.96 18.33 13.33C18.33 13.74 17.5 14.07 15.84 14.73Z" fill="#595962" fill-opacity="1.000000" fill-rule="nonzero"/>
	</g>
</svg>
