<svg width="16.000000" height="16.000000" viewBox="0 0 16 16" fill="none" xmlns="http://www.w3.org/2000/svg" xmlns:xlink="http://www.w3.org/1999/xlink">
	<desc>
			Created with Pixso.
	</desc>
	<defs>
		<clipPath id="clip21_11174">
			<rect id="status_icons" width="16.000000" height="16.000000" fill="white" fill-opacity="0"/>
		</clipPath>
	</defs>
	<rect id="status_icons" width="16.000000" height="16.000000" fill="#141616" fill-opacity="1.000000"/>
	<g clip-path="url(#clip21_11174)">
		<g opacity="0.400000">
			<mask id="mask_21_11167" fill="white">
				<path id="Union" d="M3.93457 1.94105L1.05371 3.23824L1.01953 3.92307C1.00293 4.29629 0.995117 5.93408 1.00293 7.55738L1.01562 10.5105L1.12402 10.8547C1.41699 11.7787 2.00098 12.594 2.93652 13.3984C4.13086 14.4238 5.60449 15.2101 7.49609 15.8333L8.00586 16L8.41504 15.8696C11.9307 14.7282 14.3691 12.8041 14.9248 10.7279C14.9961 10.4561 15 10.2097 15 6.85081L15 3.2636L12.3691 2.07512C11.4121 1.6406 10.5596 1.25539 10.0859 1.04278L8 0L6.41504 0.828217C5.90039 1.05708 4.97754 1.47164 3.93457 1.94105Z" clip-rule="evenodd" fill="" fill-opacity="1.000000" fill-rule="evenodd"/>
			</mask>
			<path id="Union" d="M1.05371 3.23824L3.93457 1.94105C4.97754 1.47164 5.90039 1.05708 6.41504 0.828217L8 0L10.0859 1.04278C10.5596 1.25539 11.4121 1.6406 12.3691 2.07512L15 3.2636L15 6.85081C15 10.2097 14.9961 10.4561 14.9248 10.7279C14.3691 12.8041 11.9307 14.7282 8.41504 15.8696L8.00586 16L7.49609 15.8333C5.60449 15.2101 4.13086 14.4238 2.93652 13.3984C2.00098 12.594 1.41699 11.7787 1.12402 10.8547L1.01562 10.5105L1.00293 7.55738C0.995117 5.93408 1.00293 4.29629 1.01953 3.92307L1.05371 3.23824ZM2.0221 3.89873L2.01855 3.97179Q2.00684 4.23127 2.00195 5.2762Q1.99707 6.35408 2.00293 7.55224L2.01497 10.3534L2.07812 10.5539Q2.24902 11.0937 2.60352 11.5905Q2.97656 12.1142 3.58887 12.6402Q4.39941 13.3367 5.42578 13.8845Q6.47168 14.4429 7.80957 14.8835L8.00984 14.9491L8.11133 14.9168Q9.33984 14.5178 10.3828 13.9859Q11.3926 13.4706 12.1602 12.8645Q12.9004 12.2802 13.3633 11.653Q13.8008 11.0595 13.959 10.4695Q13.9805 10.3868 13.9893 9.92781Q14 9.36775 14 6.85081L14 3.90924L11.958 2.98643L9.65625 1.94596L8.00997 1.12301L6.85156 1.72836L4.34375 2.85341L4.34473 2.85289L2.0221 3.89873Z" clip-rule="evenodd" fill="#71B280" fill-opacity="1.000000" fill-rule="evenodd"/>
		</g>
		<path id="Union" d="M5.0957 3.45579L3.03809 4.42868L3.01465 4.94231C3.00195 5.22221 2.99609 6.45056 3.00195 7.66804L3.01172 9.88286L3.08887 10.141C3.29785 10.834 3.71484 11.4455 4.38281 12.0488C5.23633 12.8179 6.28906 13.4076 7.64062 13.875L8.00391 14L8.29688 13.9022C10.8076 13.0461 12.5498 11.6031 12.9463 10.0459C12.9971 9.8421 13 9.6573 13 7.13811L13 4.44771L11.1211 3.55634C11.0615 3.52808 11.0029 3.50009 10.9453 3.47245L8 2L6.86816 2.62082C6.50098 2.7924 5.8418 3.1035 5.0957 3.45579Z" clip-rule="evenodd" fill="#71B280" fill-opacity="1.000000" fill-rule="evenodd"/>
		<path id="Vector 785" d="M6 8.06L7.62 10L11 6" stroke="#141616" stroke-opacity="1.000000" stroke-width="1.500000" stroke-linejoin="round" stroke-linecap="round"/>
	</g>
</svg>