<svg width="25.000000" height="24.000000" viewBox="0 0 25 24" fill="none" xmlns="http://www.w3.org/2000/svg" xmlns:xlink="http://www.w3.org/1999/xlink">
	<desc>
			Created with Pixso.
	</desc>
	<defs>
		<clipPath id="clip21_13956">
			<rect id="apex_icon" width="24.000000" height="24.000000" fill="white" fill-opacity="0"/>
		</clipPath>
		<clipPath id="clip21_13959">
			<rect id="Steam_icon_logo" width="19.596096" height="19.596094" transform="translate(0.095703 5.071747) rotate(-15.000003)" fill="white" fill-opacity="0"/>
		</clipPath>
	</defs>
	<rect id="bg" rx="5.000000" width="24.000000" height="24.000000" fill="#D73429" fill-opacity="0"/>
	<rect id="Steam_icon_logo" width="19.596096" height="19.596094" transform="translate(0.095703 5.071747) rotate(-15.000003)" fill="#FFFFFF" fill-opacity="0"/>
	<g clip-path="url(#clip21_13959)">
		<path id="Vector" d="M3.7 17.15C5.9 20.73 10.27 22.61 14.56 21.46C19.79 20.06 22.92 14.69 21.54 9.46C20.16 4.23 14.8 1.13 9.57 2.53C4.55 3.87 1.47 8.88 2.44 13.9C3.33 14.76 3.73 15.33 3.7 17.15L3.7 17.15Z" fill="#0E1012" fill-opacity="1.000000" fill-rule="nonzero"/>
		<path id="Vector" d="M10.95 9.76C10.95 9.77 10.96 9.79 10.96 9.8L9.53 13.79C9.15 13.87 8.79 14.04 8.47 14.28C8.33 14.39 8.21 14.5 8.09 14.63L2.45 13.9C2.45 13.9 2.84 15.87 3.71 17.18L7.7 17.7C8.09 18.46 8.84 19.02 9.74 19.14C11.23 19.34 12.6 18.29 12.81 16.81C12.86 16.42 12.83 16.03 12.72 15.67L15.41 12.41C15.44 12.41 15.47 12.4 15.5 12.39C17.48 11.86 18.67 9.81 18.15 7.83C17.62 5.84 15.58 4.66 13.6 5.19C11.61 5.72 10.42 7.77 10.95 9.76ZM12.19 16.72C12.03 17.87 10.97 18.68 9.83 18.52C9.3 18.45 8.84 18.19 8.52 17.81L9.82 17.98C10.67 18.09 11.44 17.5 11.56 16.65C11.68 15.81 11.09 15.03 10.24 14.92L8.9 14.74C9.32 14.44 9.85 14.29 10.4 14.36C10.96 14.44 11.45 14.72 11.78 15.17C12.12 15.61 12.27 16.17 12.19 16.72ZM15.18 11.19C13.86 11.55 12.5 10.76 12.15 9.43C11.8 8.11 12.59 6.75 13.91 6.39C15.24 6.04 16.6 6.83 16.95 8.15C17.3 9.47 16.5 10.84 15.18 11.19ZM12.75 9.27C12.49 8.27 13.08 7.25 14.08 6.98C15.07 6.72 16.09 7.31 16.35 8.31C16.61 9.3 16.02 10.32 15.03 10.59C14.03 10.86 13.01 10.26 12.75 9.27Z" fill="#595962" fill-opacity="1.000000" fill-rule="nonzero"/>
	</g>
</svg>
