<svg width="24.000000" height="24.000000" viewBox="0 0 24 24" fill="none" xmlns="http://www.w3.org/2000/svg" xmlns:xlink="http://www.w3.org/1999/xlink">
	<desc>
			Created with Pixso.
	</desc>
	<defs>
		<clipPath id="clip405_8996">
			<rect id="Bold / Essentional, UI / Target" width="24.000000" height="24.000000" fill="white" fill-opacity="0"/>
		</clipPath>
		<linearGradient x1="4.000000" y1="12.000000" x2="20.000000" y2="12.000000" id="paint_linear_405_8997_0" gradientUnits="userSpaceOnUse">
			<stop stop-color="#FFEEEE"/>
			<stop offset="1.000000" stop-color="#DDEFBB"/>
		</linearGradient>
	</defs>
	<g clip-path="url(#clip405_8996)">
		<path id="Vector" d="M11.39 4C7.44 4.29 4.29 7.44 4 11.39L6.38 11.39C6.71 11.39 6.98 11.66 6.98 12C6.98 12.33 6.71 12.6 6.38 12.6L4 12.6C4.29 16.55 7.44 19.7 11.39 20L11.39 17.61C11.39 17.28 11.66 17.01 12 17.01C12.33 17.01 12.6 17.28 12.6 17.61L12.6 20C16.55 19.7 19.7 16.55 20 12.6L17.61 12.6C17.28 12.6 17.01 12.33 17.01 12C17.01 11.66 17.28 11.39 17.61 11.39L20 11.39C19.7 7.44 16.55 4.29 12.6 4L12.6 6.38C12.6 6.71 12.33 6.98 12 6.98C11.66 6.98 11.39 6.71 11.39 6.38L11.39 4ZM9.79 12C9.79 11.66 10.06 11.39 10.39 11.39L11.39 11.39L11.39 10.39C11.39 10.06 11.66 9.79 12 9.79C12.33 9.79 12.6 10.06 12.6 10.39L12.6 11.39L13.6 11.39C13.93 11.39 14.2 11.66 14.2 12C14.2 12.33 13.93 12.6 13.6 12.6L12.6 12.6L12.6 13.6C12.6 13.93 12.33 14.2 12 14.2C11.66 14.2 11.39 13.93 11.39 13.6L11.39 12.6L10.39 12.6C10.06 12.6 9.79 12.33 9.79 12Z" fill="url(#paint_linear_405_8997_0)" fill-opacity="1.000000" fill-rule="evenodd"/>
	</g>
</svg>
