<svg width="28" height="28" viewBox="0 0 28 28" fill="none" xmlns="http://www.w3.org/2000/svg">
<path d="M25.6673 14.0002C25.6673 7.57183 20.429 2.3335 14.0007 2.3335C7.57232 2.3335 2.33398 7.57183 2.33398 14.0002C2.33398 17.3835 3.79232 20.4285 6.10232 22.5635C6.10232 22.5752 6.10232 22.5752 6.09065 22.5868C6.20732 22.7035 6.34732 22.7968 6.46398 22.9018C6.53398 22.9602 6.59232 23.0185 6.66232 23.0652C6.87232 23.2402 7.10565 23.4035 7.32732 23.5668C7.40898 23.6252 7.47898 23.6718 7.56065 23.7302C7.78232 23.8818 8.01565 24.0218 8.26065 24.1502C8.34232 24.1968 8.43565 24.2552 8.51732 24.3018C8.75065 24.4302 8.99565 24.5468 9.25232 24.6518C9.34565 24.6985 9.43898 24.7452 9.53232 24.7802C9.78898 24.8852 10.0457 24.9785 10.3023 25.0602C10.3957 25.0952 10.489 25.1302 10.5823 25.1535C10.8623 25.2352 11.1423 25.3052 11.4223 25.3752C11.504 25.3985 11.5857 25.4218 11.679 25.4335C12.0057 25.5035 12.3323 25.5502 12.6707 25.5852C12.7173 25.5852 12.764 25.5968 12.8106 25.6085C13.2073 25.6435 13.604 25.6668 14.0007 25.6668C14.3973 25.6668 14.794 25.6435 15.179 25.6085C15.2257 25.6085 15.2723 25.5968 15.319 25.5852C15.6573 25.5502 15.984 25.5035 16.3106 25.4335C16.3923 25.4218 16.474 25.3868 16.5673 25.3752C16.8473 25.3052 17.139 25.2468 17.4073 25.1535C17.5007 25.1185 17.594 25.0835 17.6873 25.0602C17.944 24.9668 18.2123 24.8852 18.4573 24.7802C18.5506 24.7452 18.644 24.6985 18.7373 24.6518C18.9823 24.5468 19.2273 24.4302 19.4723 24.3018C19.5657 24.2552 19.6473 24.1968 19.729 24.1502C19.9623 24.0102 20.1957 23.8818 20.429 23.7302C20.5107 23.6835 20.5806 23.6252 20.6623 23.5668C20.8956 23.4035 21.1173 23.2402 21.3273 23.0652C21.3973 23.0068 21.4557 22.9485 21.5257 22.9018C21.654 22.7968 21.7823 22.6918 21.899 22.5868C21.899 22.5752 21.899 22.5752 21.8873 22.5635C24.209 20.4285 25.6673 17.3835 25.6673 14.0002ZM19.764 19.7985C16.6023 17.6752 11.4223 17.6752 8.23732 19.7985C7.72398 20.1368 7.30398 20.5335 6.95398 20.9652C5.18065 19.1685 4.08398 16.7068 4.08398 14.0002C4.08398 8.5285 8.52898 4.0835 14.0007 4.0835C19.4723 4.0835 23.9173 8.5285 23.9173 14.0002C23.9173 16.7068 22.8207 19.1685 21.0473 20.9652C20.709 20.5335 20.2773 20.1368 19.764 19.7985Z" fill="#0E1012"/>
<path d="M14 8.08496C11.585 8.08496 9.625 10.045 9.625 12.46C9.625 14.8283 11.48 16.7533 13.9417 16.8233C13.9767 16.8233 14.0233 16.8233 14.0467 16.8233C14.07 16.8233 14.105 16.8233 14.1283 16.8233C14.14 16.8233 14.1517 16.8233 14.1517 16.8233C16.5083 16.7416 18.3633 14.8283 18.375 12.46C18.375 10.045 16.415 8.08496 14 8.08496Z" fill="#0E1012"/>
</svg>
