<svg width="22.000000" height="14.000000" viewBox="0 0 22 14" fill="none" xmlns="http://www.w3.org/2000/svg" xmlns:xlink="http://www.w3.org/1999/xlink">
	<desc>
			Created with Pixso.
	</desc>
	<defs/>
	<path id="Vector" d="M11.98 14C4.46 14 0.17 8.74 0 0L3.76 0C3.88 6.41 6.66 9.13 8.86 9.69L8.86 0L12.4 0L12.4 5.53C14.58 5.29 16.86 2.77 17.63 0L21.17 0C20.88 1.43 20.3 2.8 19.47 4C18.64 5.2 17.58 6.21 16.35 6.97C17.72 7.67 18.94 8.66 19.91 9.87C20.88 11.08 21.59 12.48 22 14L18.09 14C17.73 12.68 17 11.51 15.99 10.62C14.98 9.73 13.73 9.16 12.4 8.99L12.4 14L11.98 14Z" fill="#E3E5EB" fill-opacity="1.000000" fill-rule="nonzero"/>
</svg>
