<svg width="20.000000" height="20.000000" viewBox="0 0 20 20" fill="none" xmlns="http://www.w3.org/2000/svg" xmlns:xlink="http://www.w3.org/1999/xlink">
	<desc>
			Created with Pixso.
	</desc>
	<defs/>
	<path id="Vector" d="M1.4 1.4C0 2.81 0 5.07 0 9.6L0 10.39C0 14.92 0 17.18 1.4 18.59C2.81 20 5.07 20 9.59 20L10.4 20C14.92 20 17.18 20 18.59 18.59C20 17.18 20 14.92 20 10.39L20 9.6C20 5.07 20 2.81 18.59 1.4C17.18 0 14.92 0 10.4 0L9.59 0C5.07 0 2.81 0 1.4 1.4ZM3.37 6.08C3.48 11.28 6.08 14.4 10.64 14.4L10.9 14.4L10.9 11.43C12.57 11.6 13.84 12.82 14.34 14.4L16.71 14.4C16.06 12.04 14.35 10.73 13.29 10.23C14.35 9.61 15.85 8.11 16.21 6.08L14.06 6.08C13.59 7.73 12.21 9.23 10.9 9.37L10.9 6.08L8.75 6.08L8.75 11.85C7.41 11.51 5.73 9.9 5.65 6.08L3.37 6.08Z" fill="#595962" fill-opacity="1.000000" fill-rule="evenodd"/>
</svg>
