<svg width="20.000000" height="20.000000" viewBox="0 0 20 20" fill="none" xmlns="http://www.w3.org/2000/svg" xmlns:xlink="http://www.w3.org/1999/xlink">
	<desc>
			Created with Pixso.
	</desc>
	<defs/>
	<g opacity="0.000000"/>
	<path d="M17.94 9.05L16.67 7.79C16.45 7.57 16.28 7.14 16.28 6.85L16.28 5.05C16.28 4.31 15.68 3.71 14.95 3.71L13.15 3.71C12.85 3.71 12.43 3.54 12.21 3.32L10.95 2.05C10.43 1.54 9.58 1.54 9.06 2.05L7.78 3.32C7.57 3.54 7.15 3.71 6.84 3.71L5.04 3.71C4.31 3.71 3.71 4.31 3.71 5.05L3.71 6.84C3.71 7.14 3.54 7.56 3.32 7.78L2.05 9.05C1.54 9.56 1.54 10.41 2.05 10.93L3.32 12.2C3.54 12.41 3.71 12.84 3.71 13.14L3.71 14.93C3.71 15.66 4.31 16.26 5.04 16.26L6.84 16.26C7.14 16.26 7.56 16.44 7.78 16.65L9.04 17.92C9.56 18.44 10.41 18.44 10.93 17.92L12.2 16.65C12.41 16.44 12.84 16.26 13.14 16.26L14.93 16.26C15.66 16.26 16.26 15.66 16.26 14.93L16.26 13.14C16.26 12.84 16.44 12.41 16.65 12.2L17.92 10.93C18.46 10.42 18.46 9.57 17.94 9.05ZM6.66 7.5C6.66 7.04 7.04 6.66 7.5 6.66C7.95 6.66 8.33 7.04 8.33 7.5C8.33 7.95 7.96 8.33 7.5 8.33C7.04 8.33 6.66 7.95 6.66 7.5ZM7.94 12.94C7.81 13.06 7.65 13.12 7.5 13.12C7.34 13.12 7.18 13.06 7.05 12.94C6.81 12.7 6.81 12.3 7.05 12.05L12.05 7.05C12.29 6.81 12.7 6.81 12.94 7.05C13.18 7.3 13.18 7.7 12.94 7.94L7.94 12.94ZM12.5 13.33C12.03 13.33 11.65 12.95 11.65 12.5C11.65 12.04 12.03 11.66 12.49 11.66C12.95 11.66 13.32 12.04 13.32 12.5C13.32 12.95 12.95 13.33 12.5 13.33Z" fill="#59B3A8" fill-opacity="1.000000" fill-rule="nonzero"/>
</svg>
