<svg width="24.000000" height="24.000000" viewBox="0 0 24 24" fill="none" xmlns="http://www.w3.org/2000/svg" xmlns:xlink="http://www.w3.org/1999/xlink">
	<desc>
			Created with Pixso.
	</desc>
	<defs>
		<filter id="filter_405_14355_dd" x="1.997070" y="2.007324" width="20.004883" height="19.995605" filterUnits="userSpaceOnUse" color-interpolation-filters="sRGB">
			<feFlood flood-opacity="0" result="BackgroundImageFix"/>
			<feBlend mode="normal" in="SourceGraphic" in2="BackgroundImageFix" result="shape"/>
			<feColorMatrix in="SourceAlpha" type="matrix" values="0 0 0 0 0 0 0 0 0 0 0 0 0 0 0 0 0 0 127 0" result="hardAlpha"/>
			<feOffset dx="-2" dy="2"/>
			<feGaussianBlur stdDeviation="2"/>
			<feComposite in2="hardAlpha" operator="arithmetic" k2="-1" k3="1"/>
			<feColorMatrix type="matrix" values="0 0 0 0 1 0 0 0 0 1 0 0 0 0 1 0 0 0 0.41 0"/>
			<feBlend mode="normal" in2="shape" result="effect_innerShadow_1"/>
		</filter>
	</defs>
	<g filter="url(#filter_405_14355_dd)">
		<path d="M19.79 4.21C16.83 1.27 12.02 1.27 9.08 4.21C7.01 6.27 6.39 9.21 7.19 11.81L2.5 16.52C2.16 16.85 1.93 17.52 2 18L2.3 20.18C2.41 20.9 3.08 21.58 3.8 21.68L5.98 21.98C6.46 22.06 7.13 21.83 7.47 21.48L8.29 20.66C8.5 20.48 8.5 20.15 8.29 19.95L6.35 18.02C6.06 17.73 6.06 17.25 6.35 16.95C6.64 16.66 7.12 16.66 7.41 16.95L9.37 18.9C9.55 19.09 9.87 19.09 10.06 18.9L12.18 16.79C14.77 17.6 17.72 16.98 19.79 14.92C22.73 11.98 22.73 7.16 19.79 4.21ZM14.5 12C13.12 12 12 10.87 12 9.5C12 8.11 13.12 7 14.5 7C15.87 7 17 8.11 17 9.5C17 10.87 15.87 12 14.5 12Z" fill="#698A87" fill-opacity="0.800000" fill-rule="nonzero"/>
	</g>
	<g opacity="0.000000"/>
</svg>
