<svg width="20.000000" height="20.000000" viewBox="0 0 20 20" fill="none" xmlns="http://www.w3.org/2000/svg" xmlns:xlink="http://www.w3.org/1999/xlink">
	<desc>
			Created with Pixso.
	</desc>
	<defs/>
	<rect id="vuesax/bold/windows" width="20.000000" height="20.000000" fill="#FFFFFF" fill-opacity="0"/>
	<g opacity="0.580000"/>
	<path id="Vector" d="M17.33 1.86L10.66 3.2C10.27 3.27 10 3.61 10 4.01L10 8.33C10 8.79 10.37 9.16 10.83 9.16L17.5 9.16C17.95 9.16 18.33 8.79 18.33 8.33L18.33 2.68C18.33 2.15 17.85 1.76 17.33 1.86Z" fill="#59B3A8" fill-opacity="1.000000" fill-rule="evenodd"/>
	<path id="Vector" d="M17.33 18.13L10.66 16.8C10.27 16.72 10 16.38 10 15.98L10 11.66C10 11.2 10.37 10.83 10.83 10.83L17.5 10.83C17.95 10.83 18.33 11.2 18.33 11.66L18.33 17.31C18.33 17.84 17.85 18.23 17.33 18.13Z" fill="#59B3A8" fill-opacity="1.000000" fill-rule="evenodd"/>
	<path id="Vector" d="M7.32 3.8L2.32 4.85C1.94 4.94 1.66 5.28 1.66 5.67L1.66 8.33C1.66 8.79 2.04 9.16 2.5 9.16L7.5 9.16C7.95 9.16 8.33 8.79 8.33 8.33L8.33 4.6C8.33 4.08 7.84 3.68 7.32 3.8Z" fill="#59B3A8" fill-opacity="1.000000" fill-rule="evenodd"/>
	<path id="Vector" d="M7.32 16.2L2.32 15.14C1.94 15.05 1.66 14.71 1.66 14.32L1.66 11.66C1.66 11.2 2.04 10.83 2.5 10.83L7.5 10.83C7.95 10.83 8.33 11.2 8.33 11.66L8.33 15.39C8.33 15.91 7.84 16.31 7.32 16.2Z" fill="#59B3A8" fill-opacity="1.000000" fill-rule="evenodd"/>
	<g opacity="0.000000"/>
</svg>
