<svg width="20.000000" height="15.000000" viewBox="0 0 20 15" fill="none" xmlns="http://www.w3.org/2000/svg" xmlns:xlink="http://www.w3.org/1999/xlink">
	<desc>
			Created with Pixso.
	</desc>
	<defs/>
	<path id="Vector" d="M19.8 3C19.8 3 19.6 1.62 19 1.01C18.24 0.21 17.39 0.21 17 0.16C14.2 -0.04 10 -0.04 10 -0.04L9.99 -0.04C9.99 -0.04 5.79 -0.04 3 0.16C2.6 0.21 1.75 0.21 0.99 1.01C0.39 1.62 0.2 3 0.2 3C0.2 3 0 4.62 0 6.23L0 7.75C0 9.37 0.19 10.99 0.19 10.99C0.19 10.99 0.39 12.37 0.99 12.97C1.75 13.77 2.75 13.74 3.19 13.83C4.8 13.98 10 14.03 10 14.03C10 14.03 14.2 14.02 17 13.82C17.39 13.77 18.24 13.77 19 12.97C19.6 12.37 19.8 10.99 19.8 10.99C19.8 10.99 20 9.37 20 7.75L20 6.23C20 4.62 19.8 3 19.8 3ZM7.93 9.59L7.93 3.97L13.33 6.79L7.93 9.59Z" fill="#595962" fill-opacity="1.000000" fill-rule="nonzero"/>
</svg>
