<svg width="55.000000" height="57.000000" viewBox="0 0 55 57" fill="none" xmlns="http://www.w3.org/2000/svg" xmlns:xlink="http://www.w3.org/1999/xlink">
	<desc>
			Created with Pixso.
	</desc>
	<defs>
		<filter id="filter_405_12203_dd" x="0.000000" y="0.000000" width="53.578125" height="54.000000" filterUnits="userSpaceOnUse" color-interpolation-filters="sRGB">
			<feFlood flood-opacity="0" result="BackgroundImageFix"/>
			<feGaussianBlur in="BackgroundImage" stdDeviation="28.6667"/>
			<feComposite in2="SourceAlpha" operator="in" result="effect_backgroundBlur_1"/>
			<feBlend mode="normal" in="SourceGraphic" in2="effect_backgroundBlur_1" result="shape"/>
			<feColorMatrix in="SourceAlpha" type="matrix" values="0 0 0 0 0 0 0 0 0 0 0 0 0 0 0 0 0 0 127 0" result="hardAlpha"/>
			<feOffset dx="0" dy="4"/>
			<feGaussianBlur stdDeviation="1.33333"/>
			<feComposite in2="hardAlpha" operator="arithmetic" k2="-1" k3="1"/>
			<feColorMatrix type="matrix" values="0 0 0 0 1 0 0 0 0 1 0 0 0 0 1 0 0 0 0.15 0"/>
			<feBlend mode="normal" in2="shape" result="effect_innerShadow_2"/>
			<feColorMatrix in="SourceAlpha" type="matrix" values="0 0 0 0 0 0 0 0 0 0 0 0 0 0 0 0 0 0 127 0" result="hardAlpha"/>
			<feOffset dx="0" dy="0"/>
			<feGaussianBlur stdDeviation="22.6667"/>
			<feComposite in2="hardAlpha" operator="arithmetic" k2="-1" k3="1"/>
			<feColorMatrix type="matrix" values="0 0 0 0 1 0 0 0 0 1 0 0 0 0 1 0 0 0 0.051 0"/>
			<feBlend mode="normal" in2="effect_innerShadow_2" result="effect_innerShadow_3"/>
		</filter>
		<filter id="filter_405_12204_dd" x="35.000000" y="31.000000" width="20.000000" height="26.000000" filterUnits="userSpaceOnUse" color-interpolation-filters="sRGB">
			<feFlood flood-opacity="0" result="BackgroundImageFix"/>
			<feGaussianBlur in="BackgroundImage" stdDeviation="29.3333"/>
			<feComposite in2="SourceAlpha" operator="in" result="effect_backgroundBlur_1"/>
			<feBlend mode="normal" in="SourceGraphic" in2="effect_backgroundBlur_1" result="shape"/>
			<feColorMatrix in="SourceAlpha" type="matrix" values="0 0 0 0 0 0 0 0 0 0 0 0 0 0 0 0 0 0 127 0" result="hardAlpha"/>
			<feOffset dx="0" dy="2"/>
			<feGaussianBlur stdDeviation="0.666667"/>
			<feComposite in2="hardAlpha" operator="arithmetic" k2="-1" k3="1"/>
			<feColorMatrix type="matrix" values="0 0 0 0 1 0 0 0 0 1 0 0 0 0 1 0 0 0 0.3 0"/>
			<feBlend mode="normal" in2="shape" result="effect_innerShadow_2"/>
		</filter>
	</defs>
	<g filter="url(#filter_405_12203_dd)">
		<path id="Vector" d="M26.87 0C31.08 0 35.09 0.98 38.68 2.73C38.83 2.8 38.99 2.87 39.14 2.94C39.75 3.25 39.84 4.09 39.33 4.55L38.63 5.18C38.23 5.54 37.62 5.51 37.24 5.12L34.88 2.65C34.51 2.26 33.9 2.24 33.49 2.6L28.58 6.97C28.17 7.34 27.55 7.31 27.18 6.91L24.76 4.28C24.39 3.88 23.76 3.85 23.36 4.22L13.12 13.46C12.71 13.83 12.68 14.46 13.05 14.87L19.2 21.68C19.57 22.09 19.54 22.73 19.12 23.1L17.7 24.35C17.29 24.71 17.25 25.35 17.62 25.76L23.68 32.56C24.05 32.98 24.01 33.61 23.59 33.98L22.18 35.22C21.76 35.59 21.72 36.23 22.09 36.64L31.33 46.95C31.7 47.36 32.34 47.39 32.75 47.02L37.52 42.62C37.93 42.24 38.58 42.27 38.95 42.69L43.01 47.31C43.4 47.75 43.33 48.42 42.86 48.76C42.02 49.36 41.13 49.96 40.18 50.49C36.27 52.71 31.75 54 26.92 54C12.07 54 0 41.88 0 26.97C-0.06 12.17 12.02 0 26.87 0ZM22.67 24.65L27.61 20.21C28.02 19.84 28.66 19.88 29.02 20.29L33.45 25.25C33.82 25.66 33.78 26.29 33.37 26.66L28.43 31.1C28.02 31.47 27.39 31.43 27.02 31.02L22.6 26.06C22.23 25.65 22.26 25.02 22.67 24.65ZM27.24 35.79L32.13 31.31C32.54 30.94 33.18 30.97 33.55 31.38L38.02 36.34C38.38 36.75 38.35 37.38 37.94 37.75L33 42.19C32.59 42.56 31.96 42.52 31.59 42.11L27.17 37.2C26.8 36.79 26.83 36.16 27.24 35.79ZM18.1 13.67L23.04 9.23C23.45 8.86 24.08 8.89 24.45 9.31L28.87 14.26C29.24 14.67 29.21 15.3 28.8 15.67L23.86 20.11C23.45 20.48 22.82 20.45 22.45 20.03L18.03 15.08C17.66 14.67 17.69 14.04 18.1 13.67ZM29.86 10.57L33.16 7.58C33.57 7.21 34.21 7.24 34.58 7.65L37.56 10.97C37.93 11.37 37.9 12 37.49 12.37L34.19 15.4C33.78 15.78 33.14 15.75 32.77 15.33L29.79 11.98C29.42 11.57 29.46 10.94 29.86 10.57ZM38.39 30.43L41.69 27.44C42.1 27.07 42.74 27.1 43.11 27.52L46.09 30.87C46.46 31.28 46.42 31.91 46.02 32.28L42.72 35.27C42.31 35.64 41.67 35.61 41.3 35.19L38.32 31.84C37.95 31.43 37.98 30.8 38.39 30.43ZM42.6 40.18L45.91 37.19C46.32 36.81 46.95 36.85 47.32 37.26L50.3 40.57C50.67 40.98 50.64 41.61 50.23 41.98L46.93 45.01C46.52 45.38 45.88 45.35 45.51 44.93L42.53 41.59C42.16 41.18 42.2 40.55 42.6 40.18ZM44.56 17.89L46.26 16.35C46.67 15.98 47.31 16.01 47.68 16.42L49.22 18.13C49.59 18.54 49.55 19.17 49.15 19.54L47.44 21.09C47.03 21.46 46.4 21.43 46.03 21.01L44.49 19.3C44.12 18.89 44.15 18.26 44.56 17.89ZM40.44 8.35L42.15 6.77C42.56 6.39 43.2 6.43 43.57 6.85L45.12 8.59C45.48 9 45.45 9.63 45.04 9.99L43.33 11.54C42.92 11.92 42.29 11.88 41.92 11.47L40.37 9.76C40.01 9.35 40.04 8.72 40.44 8.35ZM48.62 27.44L50.33 25.89C50.74 25.52 51.37 25.55 51.74 25.95L53.31 27.67C53.69 28.08 53.66 28.72 53.24 29.09L51.5 30.64C51.09 31.01 50.46 30.97 50.09 30.56L48.55 28.85C48.18 28.44 48.21 27.81 48.62 27.44ZM34.28 20.27L37.58 17.28C37.99 16.91 38.63 16.94 39 17.35L41.97 20.66C42.34 21.07 42.31 21.7 41.9 22.07L38.61 25.06C38.2 25.43 37.56 25.4 37.19 24.99L34.21 21.68C33.84 21.27 33.88 20.64 34.28 20.27Z" fill="#FFFFFF" fill-opacity="0.030000" fill-rule="nonzero"/>
	</g>
	<g filter="url(#filter_405_12204_dd)">
		<path id="Vector" d="M45 41.94C48.15 41.94 50.71 39.49 50.71 36.47C50.71 33.45 48.15 31 45 31C41.84 31 39.28 33.45 39.28 36.47C39.28 39.49 41.84 41.94 45 41.94ZM45 57C50.52 57 55 54.54 55 51.52C55 48.5 50.52 46.05 45 46.05C39.47 46.05 35 48.5 35 51.52C35 54.54 39.47 57 45 57Z" fill="#59B3A8" fill-opacity="1.000000" fill-rule="evenodd"/>
	</g>
</svg>
